<svg id="Layer_1" data-name="Layer 1" xmlns="http://www.w3.org/2000/svg" viewBox="0 0 373.79 595.28"><defs><style>.cls-1{fill:#54565a;}.cls-2{fill:#002856;}.cls-3{fill:#fff;}</style></defs><title>unizg_web</title><path class="cls-1" d="M310.5,441.32h4.55v17a14.42,14.42,0,0,1-.1,1.85,2.87,2.87,0,0,1-.53,1.39,2.79,2.79,0,0,1-1.38.89,10.34,10.34,0,0,1-2.63.41v.48c.93,0,1.82,0,2.66-.05h2.27c.77,0,1.4,0,1.89,0s1.18,0,2.08,0h2.75c1.07,0,2.21.05,3.43.05v-.48c-1.25-.06-2.28-.16-3.06-.27a4.41,4.41,0,0,1-1.86-.62,2.22,2.22,0,0,1-.92-1.31,8.49,8.49,0,0,1-.25-2.34v-17h7.49v-1H319.4v-3.09q0-5.52,1.64-8.56a5.14,5.14,0,0,1,4.7-3.05,3.15,3.15,0,0,1,1.91.65,9.67,9.67,0,0,1,1.52,1.48,12.15,12.15,0,0,1,1.35,2.13,3,3,0,0,0,2-.9,2.87,2.87,0,0,0,1-2.19c0-.55-.6-1.07-1.77-1.55a12.35,12.35,0,0,0-4.67-.73,11.72,11.72,0,0,0-3.91.73,11.4,11.4,0,0,0-3.9,2.37,12.61,12.61,0,0,0-3,4.37,16.84,16.84,0,0,0-1.19,6.7v1.5l-4.55.49Zm-17.84,20.84a6.58,6.58,0,0,1-2.27-2.17,11.83,11.83,0,0,1-1.53-3.65,22,22,0,0,1-.55-5.21,21.41,21.41,0,0,1,.53-5.17,9.73,9.73,0,0,1,1.5-3.43,5.86,5.86,0,0,1,2.3-1.91,7.13,7.13,0,0,1,3-.61,6.06,6.06,0,0,1,2.95.73,6.64,6.64,0,0,1,2.35,2.18,11.09,11.09,0,0,1,1.54,3.67,21.57,21.57,0,0,1,.56,5.18,22.66,22.66,0,0,1-.51,5.18,9.32,9.32,0,0,1-1.47,3.42,5.83,5.83,0,0,1-2.37,1.92,8.1,8.1,0,0,1-3.19.6,5.61,5.61,0,0,1-2.81-.73m7.62.8a11.44,11.44,0,0,0,4-2.59,12.11,12.11,0,0,0,2.64-4.11,15,15,0,0,0,.94-5.42,12.61,12.61,0,0,0-1-5.17,10.94,10.94,0,0,0-2.63-3.7,10.72,10.72,0,0,0-3.85-2.2,14.91,14.91,0,0,0-4.57-.72,12,12,0,0,0-4.76.95,12.17,12.17,0,0,0-6.68,6.71,13.86,13.86,0,0,0-1,5.35,12.51,12.51,0,0,0,1,5.1,11,11,0,0,0,2.59,3.7,10.67,10.67,0,0,0,3.75,2.25,13.24,13.24,0,0,0,4.45.74,14.16,14.16,0,0,0,5.1-.89m-39,2.16c-.61,1.5-1.16,2.85-1.65,4a11.19,11.19,0,0,1-1.71,2.92,6.21,6.21,0,0,1-2.4,1.79,9.25,9.25,0,0,1-3.67.6,5.06,5.06,0,0,1-1.39-.16,1.55,1.55,0,0,0-.6-.13,1.91,1.91,0,0,0-.79.87,3,3,0,0,0-.27,1.26,1.67,1.67,0,0,0,.61,1.4,3.23,3.23,0,0,0,2,.49,6.44,6.44,0,0,0,3.23-.82,9.22,9.22,0,0,0,2.76-2.56,25.49,25.49,0,0,0,2.56-4.46c.84-1.8,1.74-4,2.71-6.52l7.31-17.56a18.78,18.78,0,0,1,1.32-2.72,8.1,8.1,0,0,1,1.35-1.75,4.68,4.68,0,0,1,1.46-.95,6.32,6.32,0,0,1,1.66-.38v-.53l-1.54.09c-.45,0-.95.05-1.5.05h-3.05c-.48,0-.95,0-1.4-.05l-1.5-.09v.53a3.86,3.86,0,0,1,2.47.75,2.16,2.16,0,0,1,.67,1.63,5.36,5.36,0,0,1-.29,1.64c-.19.58-.41,1.19-.67,1.83l-5.28,13.2q-2.46-5.6-4-9t-2.34-5.34c-.55-1.28-.92-2.16-1.09-2.64a3.77,3.77,0,0,1-.27-.92.83.83,0,0,1,.66-.8,9.32,9.32,0,0,1,2.11-.31V440c-.71,0-1.41,0-2.09,0s-1.19.05-1.83.05h-3.15c-.54,0-1.08,0-1.59-.05l-1.84-.09v.53a10.72,10.72,0,0,1,1.33.15,1.94,1.94,0,0,1,1,.53,5,5,0,0,1,.91,1.3c.31.59.68,1.41,1.14,2.47Zm-21.25-5a5.17,5.17,0,0,1-1.39-4.06v-14.7h9.15v-1h-9.15v-6.24h-.48A7.86,7.86,0,0,1,237,436.8a8.67,8.67,0,0,1-1.84,2,10.15,10.15,0,0,1-2.34,1.38,15.5,15.5,0,0,1-2.64.82v.34h4.11L234.2,459a5,5,0,0,0,.45,2.23,3.83,3.83,0,0,0,1.29,1.47,5.63,5.63,0,0,0,1.95.8,11.88,11.88,0,0,0,2.44.24,11,11,0,0,0,3-.39,15.24,15.24,0,0,0,2.46-.87,11.2,11.2,0,0,0,2.32-1.31l-.14-.47c-.42.09-.86.18-1.3.29l-1.41.18a10.84,10.84,0,0,1-1.64.11,5.22,5.22,0,0,1-3.6-1.22M220.12,430a3.33,3.33,0,0,0,4.06,0,3.27,3.27,0,0,0,0-4.44,3.37,3.37,0,0,0-4.06,0,3.27,3.27,0,0,0,0,4.44M223.89,448c0-1.17.05-2.3.05-3.39v-3c0-1,0-2,.05-2.7l-9.33,1.36v.52a12.33,12.33,0,0,1,2.73.57,2.64,2.64,0,0,1,1.45,1.11,4.7,4.7,0,0,1,.58,2c.08.85.12,1.95.12,3.31v10.5a14.42,14.42,0,0,1-.1,1.85,2.78,2.78,0,0,1-.53,1.39,2.74,2.74,0,0,1-1.38.89,10.34,10.34,0,0,1-2.63.41v.48c.93,0,1.82,0,2.66-.05h2.27c.78,0,1.4,0,1.89,0s1.1,0,1.86,0h2.25c.83,0,1.74.05,2.7.05v-.48a10.21,10.21,0,0,1-2.58-.41,2.9,2.9,0,0,1-1.4-.89,2.72,2.72,0,0,1-.56-1.39,14.42,14.42,0,0,1-.1-1.85Zm-18.28,15.44a10.27,10.27,0,0,0,3-1.32,7.06,7.06,0,0,0,2.12-2.13,5.26,5.26,0,0,0,.8-2.91,5.62,5.62,0,0,0-.36-2.07,5.32,5.32,0,0,0-1.18-1.77,12.91,12.91,0,0,0-2.16-1.71,36.83,36.83,0,0,0-3.26-1.89l-1.76-.9a10.93,10.93,0,0,1-1.87-1.18A6.83,6.83,0,0,1,199.5,446a3.72,3.72,0,0,1-.61-2.15,3.46,3.46,0,0,1,1.16-3,6,6,0,0,1,3.49-.82,5.08,5.08,0,0,1,2.58.63,6.63,6.63,0,0,1,1.86,1.59,8.79,8.79,0,0,1,1.26,2.16c.32.79.6,1.56.82,2.3h.49c-.07-1.16-.09-2.3-.08-3.41s.06-2.27.13-3.46a20.66,20.66,0,0,1-3.2-.43,16.43,16.43,0,0,0-3.48-.34,13.15,13.15,0,0,0-3.14.38,9.61,9.61,0,0,0-2.9,1.21,6.67,6.67,0,0,0-2.13,2.13,5.77,5.77,0,0,0-.83,3.14,4.32,4.32,0,0,0,.76,2.5,9.25,9.25,0,0,0,1.81,1.95,14.63,14.63,0,0,0,2.25,1.53l2,1.13c1.2.69,2.18,1.26,3,1.75a11.14,11.14,0,0,1,1.81,1.37,3.77,3.77,0,0,1,.89,1.31,4.41,4.41,0,0,1,.24,1.52,3.43,3.43,0,0,1-1.42,2.88,6.89,6.89,0,0,1-4.23,1.09,5.22,5.22,0,0,1-2.73-.68,7.12,7.12,0,0,1-2-1.74,13.28,13.28,0,0,1-1.4-2.28c-.38-.8-.73-1.57-1-2.31h-.47c.09,1.12.17,2.29.23,3.5s.13,2.38.2,3.51a16.5,16.5,0,0,1,3.55.5,14.83,14.83,0,0,0,3.7.46,13.09,13.09,0,0,0,3.48-.46m-33.17-22.65v.48a12.28,12.28,0,0,1,2.73.56,2.64,2.64,0,0,1,1.45,1.11,4.84,4.84,0,0,1,.58,2c.08.85.12,2,.12,3.32v10.06a16.71,16.71,0,0,1-.09,1.85,3,3,0,0,1-.53,1.39,2.79,2.79,0,0,1-1.38.89,10.44,10.44,0,0,1-2.64.41v.48c.93,0,1.83,0,2.66-.05h2.27c.77,0,1.41,0,1.89,0s1.18,0,2.08,0h2.75c1.07,0,2.21.05,3.44.05v-.48c-1.26-.06-2.28-.16-3.07-.27a4.41,4.41,0,0,1-1.86-.62,2.31,2.31,0,0,1-.92-1.31,9,9,0,0,1-.24-2.34V445.76a6.44,6.44,0,0,1,4.93-2.46,3.86,3.86,0,0,1,1.48.27,6.71,6.71,0,0,1,1.08.56,3.43,3.43,0,0,1,.87.77,4,4,0,0,0,1.6-3.09,2.59,2.59,0,0,0-.73-1.84,3.1,3.1,0,0,0-2.37-.78,4,4,0,0,0-1.93.53,8.84,8.84,0,0,0-1.86,1.39A16.6,16.6,0,0,0,183,443a16.08,16.08,0,0,0-1.47,2.25v-1.35c0-.52,0-1.07,0-1.63s0-1.1,0-1.6,0-.92.08-1.28Zm-10.27.07a5.56,5.56,0,0,1,1.66,2.2,10.58,10.58,0,0,1,.77,3.05c.14,1.13.21,2.24.24,3.33H152.75a14.67,14.67,0,0,1,2.13-7.06,5.15,5.15,0,0,1,4.36-2.37,4.7,4.7,0,0,1,2.93.85m-3.78,19.37a8.83,8.83,0,0,1-3.09-2.33,9.64,9.64,0,0,1-1.87-3.37,14.63,14.63,0,0,1-.68-4.12h16.93v-.72a16.23,16.23,0,0,0-.41-3.53,10.26,10.26,0,0,0-1.47-3.49,8.4,8.4,0,0,0-2.9-2.63,9.51,9.51,0,0,0-4.74-1,12.46,12.46,0,0,0-4.57.87,11.23,11.23,0,0,0-3.92,2.61,13.16,13.16,0,0,0-2.76,4.28,15.51,15.51,0,0,0-1,5.88,11.74,11.74,0,0,0,1,4.88,10.1,10.1,0,0,0,2.58,3.53,11.42,11.42,0,0,0,3.69,2.13,12.62,12.62,0,0,0,4.23.72,13.22,13.22,0,0,0,4-.59,25.19,25.19,0,0,0,3.24-1.34,18.31,18.31,0,0,0,2.9-1.94l-.19-.38a16.85,16.85,0,0,1-2.18.72c-.65.2-1.35.36-2.11.52a13.15,13.15,0,0,1-2.24.21,10.25,10.25,0,0,1-4.38-.87m-22.8-.44q-2.37-5.66-3.75-9.14t-2.11-5.44c-.48-1.3-.78-2.2-.91-2.7a5.82,5.82,0,0,1-.2-.95.83.83,0,0,1,.66-.8,9.21,9.21,0,0,1,2.1-.31V440c-.71,0-1.4,0-2.08,0s-1.19.05-1.83.05h-3.15c-.55,0-1.08,0-1.59-.05l-1.84-.09v.53a11,11,0,0,1,1.33.15,2,2,0,0,1,1,.53,4.8,4.8,0,0,1,.94,1.3c.3.59.66,1.41,1.09,2.47l7.45,18.91h2l7.88-17.56a23.94,23.94,0,0,1,1.38-2.71,9,9,0,0,1,1.33-1.71,5,5,0,0,1,1.43-1,5.68,5.68,0,0,1,1.67-.41v-.53l-1.55.09c-.46,0-1,.05-1.5.05h-3.05c-.48,0-.95,0-1.4-.05l-1.5-.09v.53a3.82,3.82,0,0,1,2.47.75,2.2,2.2,0,0,1,.67,1.63,5.13,5.13,0,0,1-.29,1.65,19.1,19.1,0,0,1-.67,1.82ZM112.37,430a3.23,3.23,0,0,0,2,.69,3.18,3.18,0,0,0,2-.69,3.27,3.27,0,0,0,0-4.44,3.17,3.17,0,0,0-2-.68,3.22,3.22,0,0,0-2,.68,3.3,3.3,0,0,0,0,4.44M116.15,448c0-1.17,0-2.3,0-3.39v-3c0-1,0-2,.06-2.7l-9.34,1.36v.52a12.07,12.07,0,0,1,2.73.57,2.64,2.64,0,0,1,1.45,1.11,4.57,4.57,0,0,1,.58,2,32.85,32.85,0,0,1,.13,3.31v10.5a16.5,16.5,0,0,1-.1,1.85,2.87,2.87,0,0,1-.53,1.39,2.79,2.79,0,0,1-1.38.89,10.44,10.44,0,0,1-2.64.41v.48c.94,0,1.82,0,2.66-.05h2.27c.78,0,1.41,0,1.89,0s1.1,0,1.86,0h2.25c.84,0,1.74.05,2.71.05v-.48a10.22,10.22,0,0,1-2.59-.41,3,3,0,0,1-1.4-.89,2.8,2.8,0,0,1-.55-1.39,14.42,14.42,0,0,1-.1-1.85ZM96.9,458.35a16.71,16.71,0,0,1-.09,1.85,3.09,3.09,0,0,1-.53,1.39,2.82,2.82,0,0,1-1.39.89,10.34,10.34,0,0,1-2.63.41v.48c.93,0,1.82,0,2.66-.05h2.27c.77,0,1.41,0,1.89,0s1.1,0,1.86,0h2.24c.85,0,1.75.05,2.71.05v-.48a12.26,12.26,0,0,1-2.55-.36,3,3,0,0,1-1.4-.78,2.29,2.29,0,0,1-.61-1.33,17.23,17.23,0,0,1-.17-2.07c0-1.13,0-2.12.07-3s0-1.65,0-2.46v-5.42a13.17,13.17,0,0,0-.41-3.34,7.44,7.44,0,0,0-1.3-2.68,5.91,5.91,0,0,0-2.4-1.78,8.89,8.89,0,0,0-3.67-.66,9.71,9.71,0,0,0-3.12.5,16.21,16.21,0,0,0-2.69,1.21,21.87,21.87,0,0,0-2.13,1.41l-1.44,1.08c0-.67,0-1.31,0-1.91s0-1.22,0-1.91l-9.15,1.36v.48a12.26,12.26,0,0,1,2.74.56,2.68,2.68,0,0,1,1.45,1.11,4.84,4.84,0,0,1,.58,2c.08.85.12,2,.12,3.32v10.06a16.71,16.71,0,0,1-.09,1.85,3,3,0,0,1-.54,1.39,2.79,2.79,0,0,1-1.38.89,10.34,10.34,0,0,1-2.63.41v.48c.93,0,1.82,0,2.66-.05h2.27c.77,0,1.4,0,1.88,0s1.11,0,1.87,0h2.25c.84,0,1.74.05,2.71.05v-.48a10.06,10.06,0,0,1-2.59-.41,3,3,0,0,1-1.41-.89,2.89,2.89,0,0,1-.55-1.39,14.42,14.42,0,0,1-.1-1.85V443.74a16.69,16.69,0,0,1,2.62-.87,16.88,16.88,0,0,1,4.35-.49,5.45,5.45,0,0,1,4.2,1.67q1.55,1.68,1.55,5.44ZM64.6,428.6c-.87,0-1.78,0-2.71-.05V429a28.3,28.3,0,0,1,3.44.34,3.9,3.9,0,0,1,2.22,1.09,5.05,5.05,0,0,1,1.19,2.48,22.26,22.26,0,0,1,.35,4.51v13.15a16.41,16.41,0,0,1-.8,5.44,10.79,10.79,0,0,1-2.19,3.82,8.79,8.79,0,0,1-3.36,2.27,12.05,12.05,0,0,1-4.34.75,14.51,14.51,0,0,1-4.27-.58,7.48,7.48,0,0,1-3.27-2,9.08,9.08,0,0,1-2.08-3.63,18.71,18.71,0,0,1-.72-5.63V434a11.18,11.18,0,0,1,.2-2.35,2.83,2.83,0,0,1,.76-1.5,3.64,3.64,0,0,1,1.62-.82,16,16,0,0,1,2.69-.36v-.44c-1.1,0-2.13.05-3.1.05s-1.67,0-2.51,0h-4c-.84,0-1.68,0-2.51,0-1,0-2,0-3.06-.05V429a16.23,16.23,0,0,1,2.74.36,3.42,3.42,0,0,1,1.59.82,2.82,2.82,0,0,1,.75,1.5,11.89,11.89,0,0,1,.2,2.35v19a11.55,11.55,0,0,0,.72,4.34,9.34,9.34,0,0,0,1.89,3,8.5,8.5,0,0,0,2.63,1.89,14.76,14.76,0,0,0,3,1,20.07,20.07,0,0,0,3,.43c1,.07,1.83.1,2.57.1a19.34,19.34,0,0,0,4.35-.53,10.83,10.83,0,0,0,4.16-2,10.94,10.94,0,0,0,3.12-3.87,13.91,13.91,0,0,0,1.23-6.27V437.41a40.29,40.29,0,0,1,.2-4.51,5.93,5.93,0,0,1,.74-2.48,2.53,2.53,0,0,1,1.6-1.09,16.37,16.37,0,0,1,2.73-.34v-.44c-.87,0-1.72.05-2.56.05s-1.43,0-2.18,0H66.87c-.77,0-1.53,0-2.27,0"/><path class="cls-1" d="M240.25,491.8a19.3,19.3,0,0,1,3.38-.86,20.83,20.83,0,0,1,3.1-.24,7.36,7.36,0,0,1,3.55.8,6.53,6.53,0,0,1,2.39,2.15,9.52,9.52,0,0,1,1.36,3.11,15.28,15.28,0,0,1,.44,3.66,17.36,17.36,0,0,1-.44,3.82,11.35,11.35,0,0,1-1.42,3.51,8.06,8.06,0,0,1-2.59,2.54,7.49,7.49,0,0,1-3.92,1,9.73,9.73,0,0,1-2.32-.24,7.85,7.85,0,0,1-1.65-.6,5,5,0,0,1-1.11-.8,5.52,5.52,0,0,1-.72-.87Zm-4.36,8.28c0,1.32,0,2.6,0,3.85s0,2.34-.07,3.3c0,1.14-.05,2.22-.05,3.24a6.74,6.74,0,0,0,1.55.66,25.9,25.9,0,0,0,4.93,1,25.45,25.45,0,0,0,2.71.15,17.23,17.23,0,0,0,5.25-.82,13.53,13.53,0,0,0,4.61-2.52,12.81,12.81,0,0,0,3.29-4.25,13.47,13.47,0,0,0,1.26-6,12.9,12.9,0,0,0-.87-4.9,10.19,10.19,0,0,0-2.32-3.53,10,10,0,0,0-3.36-2.13,11.1,11.1,0,0,0-4-.72,8.13,8.13,0,0,0-2.51.39,14.76,14.76,0,0,0-2.32,1A15.49,15.49,0,0,0,242,490c-.63.45-1.2.87-1.71,1.25V481.7c0-1.16.05-2.28.05-3.38v-2.95c0-1.06,0-2,0-2.71L231,474v.38a12.53,12.53,0,0,1,2.73.56,2.66,2.66,0,0,1,1.44,1.11,4.66,4.66,0,0,1,.58,2c.08.85.12,2,.12,3.31Zm-13.65-10.86a5.63,5.63,0,0,1,1.66,2.2,10.74,10.74,0,0,1,.78,3.05c.13,1.13.2,2.24.23,3.34H212.83c.29-3.13,1-5.49,2.13-7.06a5.13,5.13,0,0,1,4.35-2.37,4.64,4.64,0,0,1,2.93.84m-3.78,19.37a9.05,9.05,0,0,1-3.09-2.32,9.82,9.82,0,0,1-1.87-3.39,14,14,0,0,1-.67-4.11h16.92V498a16,16,0,0,0-.41-3.51,9.91,9.91,0,0,0-1.47-3.49,8.52,8.52,0,0,0-2.9-2.64,9.62,9.62,0,0,0-4.74-1,12.29,12.29,0,0,0-4.57.87,11.35,11.35,0,0,0-3.92,2.62,13.11,13.11,0,0,0-2.76,4.27,15.49,15.49,0,0,0-1,5.87,11.84,11.84,0,0,0,1,4.9,9.87,9.87,0,0,0,2.59,3.52,11,11,0,0,0,3.68,2.13,12.42,12.42,0,0,0,4.23.73,12.87,12.87,0,0,0,4-.61,22.68,22.68,0,0,0,3.24-1.32,20.05,20.05,0,0,0,2.9-1.94l-.2-.39a17.84,17.84,0,0,1-2.17.73c-.65.19-1.35.36-2.1.5a11.61,11.61,0,0,1-2.25.23,10.25,10.25,0,0,1-4.38-.88m-31.84-19.43v.48a12.35,12.35,0,0,1,2.73.55,2.69,2.69,0,0,1,1.45,1.11,4.66,4.66,0,0,1,.58,2c.08.86.12,2,.12,3.31V506.7a16.83,16.83,0,0,1-.09,1.87,2.82,2.82,0,0,1-.53,1.37,2.75,2.75,0,0,1-1.39.9,10.27,10.27,0,0,1-2.63.41v.49c.94,0,1.82,0,2.66-.05l2.27,0,1.89,0,2.07,0q1.37,0,2.76,0c1.07,0,2.21.05,3.44.05v-.49c-1.26-.06-2.29-.15-3.08-.26a4.46,4.46,0,0,1-1.85-.64,2.23,2.23,0,0,1-.92-1.3,8.93,8.93,0,0,1-.25-2.35V494.13a6,6,0,0,1,2.18-1.79,6.22,6.22,0,0,1,2.75-.67,4.07,4.07,0,0,1,1.48.26,5.78,5.78,0,0,1,1.09.56,3.86,3.86,0,0,1,.87.77,3.91,3.91,0,0,0,1.16-1.38,3.69,3.69,0,0,0,.44-1.71,2.57,2.57,0,0,0-.73-1.84,3.15,3.15,0,0,0-2.37-.77,4.07,4.07,0,0,0-1.94.52,9.36,9.36,0,0,0-1.85,1.38,17.49,17.49,0,0,0-1.75,1.94,16.08,16.08,0,0,0-1.47,2.25v-1.36c0-.52,0-1.05,0-1.61s0-1.1.05-1.6,0-.93.07-1.28Zm-13.74,25.09c.77.07,1.55.13,2.32.22a7.92,7.92,0,0,1,2.06.46,3.3,3.3,0,0,1,1.45,1,2.71,2.71,0,0,1,.56,1.83,5.81,5.81,0,0,1-.78,3,8,8,0,0,1-2.1,2.36,10,10,0,0,1-3.12,1.59,13.31,13.31,0,0,1-3.87.54,7.54,7.54,0,0,1-5.07-1.49q-1.76-1.5-1.75-4.84a5.45,5.45,0,0,1,.76-2.94,8.69,8.69,0,0,1,2-2.24l1.46.11Zm-4.73-10.18a4.73,4.73,0,0,1-1.79-1.45,8.08,8.08,0,0,1-1.27-2.49,12,12,0,0,1-.47-3.53,16.43,16.43,0,0,1,.38-3.89,7,7,0,0,1,1.09-2.54,4.14,4.14,0,0,1,1.67-1.41,5.1,5.1,0,0,1,2.13-.43,5.42,5.42,0,0,1,2.17.43,4.6,4.6,0,0,1,1.79,1.41,6.88,6.88,0,0,1,1.21,2.58,15.53,15.53,0,0,1,.43,3.95c0,2.7-.4,4.69-1.21,5.95a4.39,4.39,0,0,1-4,1.87,5.15,5.15,0,0,1-2.13-.45m1.3,1.43a11.52,11.52,0,0,0,7.52-2.3c1.89-1.54,2.83-3.89,2.83-7.08a8.36,8.36,0,0,0-.73-3.72,13.83,13.83,0,0,0-1.73-2.76l6.86,1.11v-2.61l-7.06,1.2a12.63,12.63,0,0,0-3-1.47,11.41,11.41,0,0,0-3.58-.51,13.11,13.11,0,0,0-3.91.58,8.61,8.61,0,0,0-3.22,1.82,8.9,8.9,0,0,0-2.2,3.09,10.86,10.86,0,0,0-.82,4.42,9.19,9.19,0,0,0,.45,3,8.35,8.35,0,0,0,1.21,2.3,8,8,0,0,0,1.72,1.62,6,6,0,0,0,2,.89,22,22,0,0,0-3,2.35,3.45,3.45,0,0,0-1.19,2.53,3.52,3.52,0,0,0,.82,2.33,4.5,4.5,0,0,0,2.42,1.35c-.8.42-1.59.85-2.34,1.31a11.65,11.65,0,0,0-2,1.48,6.89,6.89,0,0,0-1.43,1.71,3.84,3.84,0,0,0-.53,2,4.9,4.9,0,0,0,.58,2.32,5.27,5.27,0,0,0,1.81,1.94,10.72,10.72,0,0,0,3.1,1.33,17.52,17.52,0,0,0,4.47.51,21.88,21.88,0,0,0,5.61-.7,15.49,15.49,0,0,0,4.57-2,10.12,10.12,0,0,0,3.1-3.22,8.48,8.48,0,0,0,1.13-4.38,4.6,4.6,0,0,0-1.66-3.77,9,9,0,0,0-5-1.6l-6.91-.47a6.37,6.37,0,0,1-3.2-.81,1.74,1.74,0,0,1-.87-1.32,3.69,3.69,0,0,1,.17-1,7.94,7.94,0,0,1,.84-1.67,3,3,0,0,0,.64.09Zm-27.69,3.65a3.69,3.69,0,0,1-1.15-.75,3.59,3.59,0,0,1-.83-1.18,3.7,3.7,0,0,1-.32-1.52,4.49,4.49,0,0,1,.83-2.83,5.82,5.82,0,0,1,2.13-1.75,10.38,10.38,0,0,1,2.87-.92c1.05-.18,2.06-.29,3-.36l-.1,8.41a5.31,5.31,0,0,1-2.3.92,16.76,16.76,0,0,1-2.87.24,3.58,3.58,0,0,1-1.29-.26m-6.74-.32a5.33,5.33,0,0,0,1.23,1.72,6.18,6.18,0,0,0,2,1.21,7.42,7.42,0,0,0,2.64.46,8.28,8.28,0,0,0,2.37-.34,11.13,11.13,0,0,0,2-.84,9.55,9.55,0,0,0,1.7-1.15,12.69,12.69,0,0,0,1.28-1.2,5.61,5.61,0,0,0,.22,1.13,3.46,3.46,0,0,0,.58,1.17,3.12,3.12,0,0,0,1.08.91,3.63,3.63,0,0,0,1.75.37,8.92,8.92,0,0,0,2.41-.41,17.6,17.6,0,0,0,3.25-1.39v-.29a23.7,23.7,0,0,1-2.86-.12,2.26,2.26,0,0,1-1.5-.65,2.76,2.76,0,0,1-.57-1.66c-.07-.76-.11-1.8-.11-3.12,0-1.13.06-2.08.08-2.83s0-1.49,0-2.18,0-1.41.05-2.17,0-1.71,0-2.83a6.94,6.94,0,0,0-1.91-5.28q-2-1.93-5.93-1.93a9.53,9.53,0,0,0-3.82.73,13.77,13.77,0,0,0-2.85,1.6A11.57,11.57,0,0,0,135.8,492l.48.53a16.27,16.27,0,0,1,2-1.11,21.57,21.57,0,0,1,2.23-.74,9.83,9.83,0,0,1,2.8-.37,4.6,4.6,0,0,1,3.9,1.67,6.31,6.31,0,0,1,1.23,4.14l0,3c-1.38.1-2.88.24-4.49.41a17.31,17.31,0,0,0-4.47,1.07,9.19,9.19,0,0,0-3.44,2.27,5.55,5.55,0,0,0-1.38,3.94,4.6,4.6,0,0,0,.44,2m-26.5,1.93,22-32.68v-1.16H110.4l-1.16,0-1.42,0-1.5-.08a13.25,13.25,0,0,1-1.38-.15c.06.78.1,1.55.1,2.33v4.64c0,.77,0,1.55-.1,2.33h.48a11.46,11.46,0,0,1,1-3.78,5.6,5.6,0,0,1,2.49-2.49,14.21,14.21,0,0,1,4.74-1.36,60.24,60.24,0,0,1,7.79-.41h3.67l-21.76,32.55v1.31h22c.32,0,.73,0,1.21,0l1.53.05c.53,0,1,.05,1.57.09L131,512c.13-1.56.27-3.08.41-4.6s.33-3,.56-4.59h-.48a9.87,9.87,0,0,1-1.19,3.65,6.27,6.27,0,0,1-3,2.46,18.94,18.94,0,0,1-5.54,1.39,75.09,75.09,0,0,1-8.94.42Z"/><path class="cls-2" d="M185.76,368.62A154.58,154.58,0,1,0,31.19,214.05,154.58,154.58,0,0,0,185.76,368.62"/><path class="cls-3" d="M321,236.16l.75.09c.07-.6.14-1.21.22-1.81.15-1.51.36-3,.63-4.51.07-.6.17-1.18.28-1.79l-.76-.09a7.61,7.61,0,0,1-.41,1.52,1.36,1.36,0,0,1-.44.62,1.11,1.11,0,0,1-.67.23,5.11,5.11,0,0,1-1.12-.06l-11.89-1.65a5.25,5.25,0,0,1-1.11-.25,1.18,1.18,0,0,1-.83-1.12,9.25,9.25,0,0,1,0-1.58l-.74-.1c-.09.59-.17,1.19-.23,1.79l-.18,1.26c-.07.67-.16,1.33-.27,2l-.18,1.25c-.1.6-.19,1.2-.27,1.81l.75.1a9.25,9.25,0,0,1,.38-1.53,1.92,1.92,0,0,1,.44-.63,1.24,1.24,0,0,1,.66-.23,6.07,6.07,0,0,1,1.15.07l11.9,1.65a5,5,0,0,1,1.08.25,1,1,0,0,1,.58.39,1.47,1.47,0,0,1,.25.73,8.45,8.45,0,0,1,0,1.59m-7,18,1.32.35,1,.27,1.24.4a13.18,13.18,0,0,1,.29-1.76c.06-.25.12-.5.16-.74.37-1.38.75-2.76,1.08-4.15.16-.61.32-1.19.44-1.75.32-1.19.61-2.39,1-3.57.15-.58.32-1.16.49-1.73l-.69-.19a7.44,7.44,0,0,1-.59,1.46,1.36,1.36,0,0,1-.51.58,1.18,1.18,0,0,1-.69.14,5.07,5.07,0,0,1-1.1-.2l-11.65-3.09a6.1,6.1,0,0,1-1.09-.39,1.18,1.18,0,0,1-.67-1.22,8.4,8.4,0,0,1,.23-1.56l-.73-.19q-.24.88-.45,1.74l-.32,1.24c-.09.42-.18.76-.24,1l-2,7.12-.15.59c-.08.23-.15.47-.22.72s-.17.51-.25.75-.23.59-.34.89l2.44.87c.81.32,1.62.65,2.43,1l.19-.71a9.94,9.94,0,0,1-1.71-1.31,3.66,3.66,0,0,1-1.13-2.66,10.73,10.73,0,0,1,.94-3.73,2.52,2.52,0,0,1,.84-1,2.17,2.17,0,0,1,1.22-.25,49.83,49.83,0,0,1,5.71,1.37,18.29,18.29,0,0,1-1,3.23,3,3,0,0,1-.68,1,1.42,1.42,0,0,1-.83.38,4,4,0,0,1-1.53-.11l-.19.74,1.55.35,1,.22,1.54.41,1,.31,1.45.45.2-.74a3.68,3.68,0,0,1-1.22-.61,2.13,2.13,0,0,1-.65-.86,3.39,3.39,0,0,1-.25-1.31,12.28,12.28,0,0,1,.62-3.17l7.06,1.87a20.07,20.07,0,0,1-1.42,4.32,4.56,4.56,0,0,1-1.16,1.54,2.9,2.9,0,0,1-1.34.59,16,16,0,0,1-2,.15l-.18.69c.49.12,1,.22,1.47.33m-22.7,15.62,12.47,5.79a16.05,16.05,0,0,1,1.71.9,3.42,3.42,0,0,1,.94.8,1.48,1.48,0,0,1,.26.87,4.6,4.6,0,0,1-.39,1.53l.69.32c.18-.44.36-.88.56-1.3a37.25,37.25,0,0,1,1.63-3.51c.22-.46.44-.92.68-1.38l-.7-.32a9.19,9.19,0,0,1-.93,1.53,1.07,1.07,0,0,1-.74.44,2.32,2.32,0,0,1-1.2-.12,17.81,17.81,0,0,1-2-.83l-7.85-3.65-.29.06,17.57-5.48,1.56-3.34-.69-.32a7.53,7.53,0,0,1-.85,1.38,1.07,1.07,0,0,1-.78.38,3.52,3.52,0,0,1-1.49-.29c-2.47-.87-8.53-3.84-9.45-4.27a15.61,15.61,0,0,1-1.73-.91,3.08,3.08,0,0,1-.91-.81,1.42,1.42,0,0,1-.27-.88,4.28,4.28,0,0,1,.4-1.49l-.69-.32c-.18.39-.36.79-.53,1.2l-.39.84c-.22.56-.48,1.09-.75,1.64l-.49,1c-.24.47-.47,1-.7,1.45l.7.32a10.33,10.33,0,0,1,.87-1.47,1.29,1.29,0,0,1,.76-.47,2.46,2.46,0,0,1,1.19.1,14.58,14.58,0,0,1,2,.82l7.79,3.62.29-.05-18,5.51Zm2.34,21,1.32.79,1.92,1.25,1.05.75.3-.46a5.12,5.12,0,0,1,.64-.77l.65-.66c.22-.23.46-.47.7-.76a7.89,7.89,0,0,0,1.68-3.12,5.86,5.86,0,0,0,.22-2.07,4.68,4.68,0,0,0-.57-1.87,4.51,4.51,0,0,0-3-2.14,5,5,0,0,0-1.67.06,9.07,9.07,0,0,0-1.83.6c-.64.29-1.34.64-2.13,1s-1.34.66-1.88.89a5.16,5.16,0,0,1-1.4.46,2.61,2.61,0,0,1-1.07,0,3.36,3.36,0,0,1-1.91-1.22,2.56,2.56,0,0,1-.57-1,2.85,2.85,0,0,1-.06-1.25,5.1,5.1,0,0,1,2-2.95,4.82,4.82,0,0,1,1.58-.6,6.05,6.05,0,0,1,1.7,0,15.35,15.35,0,0,1,1.93.4l.4-.62a21.15,21.15,0,0,1-2.32-1.19c-.74-.41-1.49-.84-2.23-1.28a7.32,7.32,0,0,1-.88,1.19l-.68.78a10.31,10.31,0,0,0-2.58,4.19,7,7,0,0,0-.31,2.35,5.17,5.17,0,0,0,.59,2.14,4.52,4.52,0,0,0,3.12,2.32,3.89,3.89,0,0,0,1.62-.06,8.61,8.61,0,0,0,1.87-.68c.67-.29,1.47-.66,2.38-1.11s1.44-.68,2-.89a8,8,0,0,1,1.36-.38,2.07,2.07,0,0,1,.88,0,3.51,3.51,0,0,1,1.6,1.08,3.09,3.09,0,0,1,.54.92,2.14,2.14,0,0,1,.12,1,3.73,3.73,0,0,1-1.75,2.48,3.29,3.29,0,0,1-1.45.46,5,5,0,0,1-1.6-.18,16.88,16.88,0,0,1-1.87-.58Zm-14.18,2.57,9.34,7.54a5.75,5.75,0,0,1,.82.77,1.12,1.12,0,0,1,.28.63,1.32,1.32,0,0,1-.16.76,8,8,0,0,1-.82,1.34l.59.48c.37-.48.74-1,1.12-1.44.9-1.22,1.86-2.41,2.86-3.55.38-.47.77-.93,1.16-1.38l-.59-.47a8.33,8.33,0,0,1-1.14,1.08,1.41,1.41,0,0,1-.7.32,1.14,1.14,0,0,1-.69-.14,5.78,5.78,0,0,1-.92-.64l-9.35-7.53a5.36,5.36,0,0,1-.83-.79,1.19,1.19,0,0,1-.13-1.39,9.62,9.62,0,0,1,.84-1.33l-.58-.48c-.38.47-.75.95-1.11,1.42l-.8,1c-.41.54-.83,1.06-1.27,1.57l-.8,1-1.17,1.42.6.47a9.7,9.7,0,0,1,1.11-1.11,1.76,1.76,0,0,1,.71-.31,1.15,1.15,0,0,1,.68.14,6.77,6.77,0,0,1,.95.65m-12.32,10.08a4.92,4.92,0,0,0,.09,2.23,4.5,4.5,0,0,0,2.5,3,3.92,3.92,0,0,0,1.61.3,8.23,8.23,0,0,0,2-.23c.72-.13,1.58-.32,2.57-.55a21.2,21.2,0,0,1,2.13-.42,6.56,6.56,0,0,1,1.42-.06,1.89,1.89,0,0,1,.85.21,3.58,3.58,0,0,1,1.31,1.42,3.21,3.21,0,0,1,.33,1,2.54,2.54,0,0,1-.12,1,3.8,3.8,0,0,1-2.26,2,3.22,3.22,0,0,1-1.53.12,4.71,4.71,0,0,1-1.52-.54,14.34,14.34,0,0,1-1.69-1l-.52.52,1.11,1.05.88.91.71.73.86,1,.39-.37a5.06,5.06,0,0,1,.79-.62c.26-.15.52-.32.79-.49s.55-.36.85-.58a7.86,7.86,0,0,0,2.34-2.66,5.83,5.83,0,0,0,.68-2,4.39,4.39,0,0,0-2.59-4.71,5.09,5.09,0,0,0-1.64-.32,10.35,10.35,0,0,0-1.93.18c-.68.14-1.45.32-2.3.52s-1.46.35-2,.45a5.32,5.32,0,0,1-1.47.12,2.7,2.7,0,0,1-1.05-.19,3.45,3.45,0,0,1-1.59-1.63,2.58,2.58,0,0,1-.32-1.1,2.74,2.74,0,0,1,.22-1.24,5.11,5.11,0,0,1,2.62-2.42,4.86,4.86,0,0,1,1.68-.22,6.06,6.06,0,0,1,1.66.38,13.2,13.2,0,0,1,1.79.83l.53-.52a24.54,24.54,0,0,1-2-1.68c-.64-.57-1.26-1.17-1.89-1.75a7.88,7.88,0,0,1-1.12,1l-.84.61a10.25,10.25,0,0,0-3.46,3.5,6.48,6.48,0,0,0-.82,2.21m-31.2,20.44a2.27,2.27,0,0,1,.75.11,3.83,3.83,0,0,1,.88.35q.51.24,1.14.57l6.83,3.79-.88,5.66a13,13,0,0,1-.28,1.49,7.36,7.36,0,0,1-.46,1.32,5.11,5.11,0,0,1-.74,1.13,5.59,5.59,0,0,1-1.36,1l.35.68,1.34-.75c.3-.18.61-.35.92-.51a16.14,16.14,0,0,1,1.5-.75c.25-.14.5-.25.71-.35l1-.46-.36-.69a2.77,2.77,0,0,1-1.26.42c-.53,0-.56-.53-.52-.94s.11-.78.18-1.2l.92-5.51-.16-.11c.84.41,1.67.82,2.49,1.26l1.59.8c.51.27,1,.52,1.39.76s.78.44,1.05.62a1.69,1.69,0,0,1,.41.33c.19.38-.9.92-1.12,1l.35.69,1.37-.76c.31-.18.63-.35.94-.51a16.48,16.48,0,0,1,1.62-.83l1-.48,1.4-.65-.34-.68a3.77,3.77,0,0,1-1.08.34,4.2,4.2,0,0,1-.86-.06,8.06,8.06,0,0,1-1-.31c-.31-.13-.65-.3-1-.48l-7.73-4,.74-6.26a5.13,5.13,0,0,1,.24-1.25,3.28,3.28,0,0,1,1.16-1.62q.57-.42,1.17-.78l-.35-.67-1.2.68c-1.09.63-2.24,1.21-3.38,1.73l-1.4.65.35.7a3.3,3.3,0,0,1,.9-.4,1.7,1.7,0,0,1,.54,0,.5.5,0,0,1,.31.14,1.43,1.43,0,0,1,.48,1.05,6,6,0,0,1-.05,1.15l-.55,4.3.14.14-1.46-.76c-1.31-.73-2.62-1.49-3.88-2.3a4.7,4.7,0,0,1-.79-.6c-.21-.42.87-.92,1.12-1l-.36-.7-1.32.74c-1.12.64-2.27,1.24-3.44,1.77l-1.36.62.35.69a2.6,2.6,0,0,1,1-.3M223,328.59a6.38,6.38,0,0,1,1.55-.32,1.17,1.17,0,0,1,.76.1,1,1,0,0,1,.5.48,5.72,5.72,0,0,1,.46,1l3.93,11.34a5.45,5.45,0,0,1,.28,1.11,1.2,1.2,0,0,1-.62,1.25,9.26,9.26,0,0,1-1.42.68l.24.71c.57-.2,1.13-.4,1.7-.62l1.2-.41c.63-.24,1.26-.47,1.9-.66l1.2-.41c.58-.18,1.16-.38,1.74-.58l-.25-.72a8.92,8.92,0,0,1-1.53.35,1.74,1.74,0,0,1-.77-.11,1.14,1.14,0,0,1-.5-.48,5.62,5.62,0,0,1-.46-1.05L229,328.94a5.1,5.1,0,0,1-.29-1.09,1.18,1.18,0,0,1,.1-.68,1.42,1.42,0,0,1,.54-.56,8.09,8.09,0,0,1,1.41-.71l-.25-.72c-.57.23-1.14.43-1.71.64-1.42.55-2.86,1.05-4.31,1.48-.57.2-1.14.38-1.72.57Zm-19.19,4.08-1.48.25.17.76a2.34,2.34,0,0,1,1,0,2.31,2.31,0,0,1,.7.29,4.52,4.52,0,0,1,.76.58c.28.23.59.52.94.84l5.63,5.42L209.21,346c-.2.46-.42.93-.66,1.37a8.76,8.76,0,0,1-.79,1.16,4.61,4.61,0,0,1-1,.9,5.61,5.61,0,0,1-1.57.6l.17.75,1.49-.38c.33-.09.67-.16,1-.24a13.15,13.15,0,0,1,1.63-.35l.79-.15,1.11-.17-.16-.76a3,3,0,0,1-1.33.08c-.5-.19-.4-.66-.25-1.05s.3-.72.48-1.12l2.31-5.08-.12-.13c.7.6,1.4,1.21,2.08,1.85.44.38.88.78,1.32,1.19s.82.74,1.16,1.09.62.63.84.87a1.72,1.72,0,0,1,.31.43c.09.41-1.1.64-1.35.7l.17.76,1.52-.39,1-.25c.59-.15,1.17-.28,1.78-.38l1.07-.21,1.52-.26-.16-.75a3.52,3.52,0,0,1-1.12,0,3.87,3.87,0,0,1-.83-.28,8.29,8.29,0,0,1-.83-.54c-.27-.22-.55-.46-.83-.72l-6.45-5.84,2.34-5.86a5,5,0,0,1,.56-1.14,3.17,3.17,0,0,1,1.54-1.26,12.06,12.06,0,0,1,1.32-.45l-.16-.74-1.32.34c-1.23.33-2.48.59-3.73.8l-1.51.26.16.77a3.17,3.17,0,0,1,1-.15,1.6,1.6,0,0,1,.53.12.59.59,0,0,1,.26.21,1.41,1.41,0,0,1,.19,1.15,6.41,6.41,0,0,1-.34,1.09l-1.66,4,.11.17L211.61,337c-1.08-1.05-2.16-2.11-3.16-3.23a4.67,4.67,0,0,1-.61-.78c-.09-.46,1.07-.66,1.35-.72l-.16-.76-1.48.37a37.18,37.18,0,0,1-3.77.81M187.7,334c-.6.05-1.2.08-1.81.1l.06.76a7.61,7.61,0,0,1,1.58.08,1.31,1.31,0,0,1,.7.31,1.11,1.11,0,0,1,.36.59,6.26,6.26,0,0,1,.18,1.11l.86,12a6.07,6.07,0,0,1,0,1.14,1.2,1.2,0,0,1-.93,1,9,9,0,0,1-1.55.29l.05.75c.61,0,1.2-.09,1.8-.15l1.27-.09,1-.1,7.38-.46.6,0c.25,0,.51,0,.76,0h.79l1,0c0-.86,0-1.72,0-2.59s.08-1.75.14-2.61l-.74,0a5.88,5.88,0,0,1-1.55,3.2c-1.23,1.14-3.5,1.24-5.1,1.12a2.44,2.44,0,0,1-1.21-.36,2,2,0,0,1-.65-1,9.56,9.56,0,0,1-.3-1.95l-.76-10.41a5.62,5.62,0,0,1,0-1.12,1.26,1.26,0,0,1,.25-.65,1.41,1.41,0,0,1,.65-.39,7.77,7.77,0,0,1,1.58-.32l-.06-.76-1.82.17c-1.51.16-3,.27-4.54.32m-21.89,7.71a8.72,8.72,0,0,0,5,9.15,11.38,11.38,0,0,0,5.36,1.08q.8,0,1.56-.06c.51,0,1-.08,1.43-.09a7.38,7.38,0,0,1,1.33,0c.15-.84.31-1.67.47-2.52s.39-1.71.6-2.56l-.71-.08a21.06,21.06,0,0,1-1.1,1.91,5.91,5.91,0,0,1-1.14,1.38,4.21,4.21,0,0,1-1.62.83,6.06,6.06,0,0,1-4.49-.59,7.44,7.44,0,0,1-3.26-4.62,12.57,12.57,0,0,1,.7-7.54,7,7,0,0,1,1.75-2.26,5.86,5.86,0,0,1,2.32-1.14c2-.48,4.75-.29,6.06,1.53a5.22,5.22,0,0,1,.76,1.51q.3,1,.51,2l.7.07c.1-1.7.27-3.4.53-5.09a11.82,11.82,0,0,1-1.58-.25c-.4-.12-.83-.22-1.3-.33a12.75,12.75,0,0,0-7-.37,9.54,9.54,0,0,0-3.39,1.54,8.76,8.76,0,0,0-2.38,2.74,9.88,9.88,0,0,0-1.12,3.77m-19.29.9L150,329.62l.32.06a5.69,5.69,0,0,1,.78.16c.26.05.53.11.78.18a10.51,10.51,0,0,1,3.44,1.35,6.36,6.36,0,0,1,2.09,2,6.53,6.53,0,0,1,1,2.89c.36,2.95-1.08,7.62-3.78,9.12-1.56.87-3.64,1-6.3.27a2.48,2.48,0,0,1-1.74-1.12,2.86,2.86,0,0,1,0-2m-6.06,1.26-.19.73c.59.16,1.19.31,1.79.45l1.25.34a18,18,0,0,1,1.95.52c.36.09.73.2,1.08.31l1.07.28c3,.78,6.49,1.57,9.44.12,2.14-1,3.57-3,4.33-5.9s.45-5.38-1.06-7.31-3.93-3.29-7.29-4.19c-.58-.14-1.14-.27-1.66-.41-1.51-.35-3-.74-4.52-1.2l-1.73-.5-.2.73a6.44,6.44,0,0,1,1.46.61,1.2,1.2,0,0,1,.57.5,1.08,1.08,0,0,1,.15.68,5.72,5.72,0,0,1-.19,1.11l-3.09,11.6a7.1,7.1,0,0,1-.38,1.09,1.2,1.2,0,0,1-1.22.67,8.27,8.27,0,0,1-1.56-.23m-27.13-12.69-.33.67c.39.19.78.39,1.18.57l.83.42a16.91,16.91,0,0,1,1.53.78l.87.44c.4.23.81.43,1.21.64L119,334a11.42,11.42,0,0,1-1.44-.93,1,1,0,0,1-.37-.71,2.74,2.74,0,0,1,.28-1.11c1.26-2.9,4.74-9.47,5.11-10.2l-.31,15.72.84.43,12.39-10.34-5.22,10.29q-.31.62-.57,1a1.22,1.22,0,0,1-.48.46,1.15,1.15,0,0,1-.61.05,6.5,6.5,0,0,1-1.32-.47l-.33.67c.45.24.92.47,1.4.69l1,.49c.59.27,1.16.57,1.73.88l1.13.58,1.63.85.33-.68a9.93,9.93,0,0,1-1.32-.86,1.79,1.79,0,0,1-.44-.62,1.12,1.12,0,0,1,0-.7,5.16,5.16,0,0,1,.43-1.07l5.47-10.78a11,11,0,0,1,.56-1,1.15,1.15,0,0,1,.45-.44,1.1,1.1,0,0,1,.66,0,7,7,0,0,1,1.41.52l.32-.64-4.2-2.12-12.36,10.38.34-16.47-4.36-2.23-.32.64a7.26,7.26,0,0,1,1.35.91,1,1,0,0,1,.35.78,3.52,3.52,0,0,1-.33,1.49c-1,2.45-4.15,8.41-4.62,9.33a15.49,15.49,0,0,1-1,1.69,2.76,2.76,0,0,1-.85.88,1.29,1.29,0,0,1-.88.25,4.52,4.52,0,0,1-1.49-.45M93.21,156.79h0m7.63,0h0m7.64,0h0m7.63,0h0m7.63,0h0m7.64,0h0m54.38,69.66h0v0Zm14.56,17.6,1.88.37a10.5,10.5,0,0,1,20.58,0l1.87-.37a12.41,12.41,0,0,0-24.33,0m-31,.37,1.87-.37a12.41,12.41,0,0,0-24.34,0l1.88.37a10.5,10.5,0,0,1,20.59,0m31-36.63,1.88.38a10.49,10.49,0,0,1,20.58,0l1.88-.38a12.41,12.41,0,0,0-24.34,0m-31,.38,1.88-.38a12.41,12.41,0,0,0-24.34,0l1.88.38a10.49,10.49,0,0,1,20.58,0m16.42-10.35h0a12.4,12.4,0,0,0-12.16,10l1.88.38a10.5,10.5,0,0,1,20.59,0l1.87-.38a12.42,12.42,0,0,0-12.18-10m0-9v0Zm-16.34-14.25,1.87-.38a8.6,8.6,0,0,0-12.24-6,8.6,8.6,0,0,0-12.24,6l1.87.38a6.69,6.69,0,0,1,6.56-5.37,6.61,6.61,0,0,1,1.9.28,6.75,6.75,0,0,1,1.91.92,6.75,6.75,0,0,1,1.91-.92,6.68,6.68,0,0,1,8.46,5.09m20.16-23.5a3.82,3.82,0,1,1-3.82-3.81,3.81,3.81,0,0,1,3.82,3.81m1.91,0a5.73,5.73,0,1,0-5.73,5.73,5.73,5.73,0,0,0,5.73-5.73m4.64,23.5,1.88-.38a8.61,8.61,0,0,0-12.25-6,8.59,8.59,0,0,0-12.23,6l1.87.38a6.67,6.67,0,0,1,10.36-4.17,6.88,6.88,0,0,1,1.91-.92,6.68,6.68,0,0,1,8.46,5.09m26.72,0,1.87-.38a8.6,8.6,0,0,0-12.24-6,8.59,8.59,0,0,0-12.23,6l1.87.38a6.68,6.68,0,0,1,6.54-5.37,6.75,6.75,0,0,1,1.92.28,6.83,6.83,0,0,1,1.9.92,6.88,6.88,0,0,1,1.91-.92,6.68,6.68,0,0,1,8.46,5.09m17.31-17.77h0m7.63,0h0m7.63,0h0m7.64,0h0m7.63,0h0m7.64,0h0m-5.11,14.55h-2.4a6.59,6.59,0,0,1,1.52,2.69c.05.18.09.35.13.53l1.87-.37,0-.16a8.6,8.6,0,0,0-1.09-2.69M257.54,174a.94.94,0,0,0,0,.16l1.87.37c0-.18.08-.35.13-.53h0a6.7,6.7,0,0,1,6.42-4.84,6.67,6.67,0,0,1,4.9,2.15h2.4a8.6,8.6,0,0,0-14.59,0A7.94,7.94,0,0,0,257.54,174Zm-4.36-2.69H250.8a6.7,6.7,0,0,1,1.52,2.69c0,.18.09.35.12.53l1.87-.37a.9.9,0,0,0,0-.16,8.39,8.39,0,0,0-1.1-2.69M237.5,174l0,.16,1.87.37a5.11,5.11,0,0,1,.13-.53h0a6.59,6.59,0,0,1,1.52-2.69,6.67,6.67,0,0,1,9.81,0h2.38a8.59,8.59,0,0,0-14.58,0,8.39,8.39,0,0,0-1.1,2.69m14.93,36.79,1.87-.37a8.59,8.59,0,0,0-16.84,0l1.87.37a6.68,6.68,0,0,1,13.1,0m20,0,1.87-.37a8.59,8.59,0,0,0-16.84,0l1.87.37a6.68,6.68,0,0,1,13.1,0m20,0,1.87-.37a8.59,8.59,0,0,0-16.84,0l1.87.37a6.68,6.68,0,0,1,13.1,0m-40.08,36.26,1.87-.37a8.59,8.59,0,0,0-16.84,0l1.87.37a6.68,6.68,0,0,1,13.1,0m20,0,1.87-.37a8.59,8.59,0,0,0-16.84,0l1.87.37a6.68,6.68,0,0,1,13.1,0m-160.3,0,1.86-.37a8.58,8.58,0,0,0-16.83,0l1.86.37a6.69,6.69,0,0,1,13.11,0m20,0,1.87-.37a8.59,8.59,0,0,0-16.85,0l1.88.37a6.68,6.68,0,0,1,13.1,0m-31.49-75.74h-2.4A8.37,8.37,0,0,0,97.23,174a.9.9,0,0,0,0,.16l1.86.37a5.18,5.18,0,0,1,.14-.53,6.48,6.48,0,0,1,1.52-2.69m11.44,3.22,1.87-.37a.9.9,0,0,0,0-.16,8.15,8.15,0,0,0-1.09-2.69,8.6,8.6,0,0,0-14.59,0h2.4A6.68,6.68,0,0,1,112,174h0c0,.18.09.35.12.53m8.58-3.22h-2.39a8.37,8.37,0,0,0-1.09,2.69.94.94,0,0,0,0,.16l1.87.37a5.18,5.18,0,0,1,.14-.53,6.57,6.57,0,0,1,1.51-2.69m11.45,3.22,1.88-.37a.94.94,0,0,0,0-.16,8.37,8.37,0,0,0-1.09-2.69,8.6,8.6,0,0,0-14.59,0h2.39A6.69,6.69,0,0,1,132.07,174h0a5,5,0,0,1,.12.53m-15,35.89,1.88.37a6.68,6.68,0,0,1,13.1,0l1.87-.37a8.59,8.59,0,0,0-16.85,0m-20,0,1.86.37a6.69,6.69,0,0,1,13.11,0l1.86-.37a8.58,8.58,0,0,0-16.83,0m-20,0,1.88.37a6.68,6.68,0,0,1,13.1,0l1.87-.37a8.59,8.59,0,0,0-16.85,0m-2.53,14.09q-.5-5.19-.5-10.5a111.51,111.51,0,0,1,2.56-23.85h61.38v-1.91h-7.64v-6.17h0v-6.24a4.87,4.87,0,0,0-.37-1.84h-2.22a2.8,2.8,0,0,1,.68,1.84v12.41h-5.73v-6.17h0v-6.24a2.86,2.86,0,0,1,5-1.84h2.22a4.76,4.76,0,0,0-2.93-2.69h0a4.65,4.65,0,0,0-3,0,4.73,4.73,0,0,0-2.93,2.69,4.69,4.69,0,0,0-.37,1.84v12.41H110.38v-6.17h0v-6.24A4.69,4.69,0,0,0,110,174H107.8a2.8,2.8,0,0,1,.68,1.84v12.41h-5.72v-6.17h0v-6.24a2.85,2.85,0,0,1,5-1.84H110a4.69,4.69,0,0,0-2.92-2.69h0a4.53,4.53,0,0,0-1.47-.24,4.65,4.65,0,0,0-1.49.24,4.77,4.77,0,0,0-2.92,2.69,4.87,4.87,0,0,0-.37,1.84v12.41H90.35v-6.17h0v-6.24A4.69,4.69,0,0,0,90,174H87.77a2.9,2.9,0,0,1,.67,1.84v12.41H82.71v-6.17h0v-6.24A2.88,2.88,0,0,1,85.58,173a2.89,2.89,0,0,1,2.19,1H90a4.73,4.73,0,0,0-2.93-2.69h0a4.49,4.49,0,0,0-1.47-.24,4.55,4.55,0,0,0-1.48.24,4.78,4.78,0,0,0-2,1.32c.41-1,.84-2,1.28-3.07a6.62,6.62,0,0,1,7.15,1.75A6.59,6.59,0,0,1,92,174h0c0,.18.09.35.13.53l1.86-.37a.45.45,0,0,0,0-.16,8.37,8.37,0,0,0-1.09-2.69,8.62,8.62,0,0,0-8.55-4c.45-1,.92-2,1.41-3h6.53v-3.81a1,1,0,1,1,1.9,0v3.81h5.73v-3.81a1,1,0,1,1,1.91,0v3.81h5.72v-3.81a1,1,0,1,1,1.91,0v3.81h5.73v-3.81a1,1,0,1,1,1.91,0v3.81h5.72v-3.81a1,1,0,1,1,1.91,0v3.81h5.73v-3.81a1,1,0,1,1,1.9,0v3.81h5.73v60.12h-7.63V212.13a4.78,4.78,0,0,0-9.55,0v12.41h-10.5V212.13a4.77,4.77,0,0,0-9.54,0v12.41H90.35V212.13a4.77,4.77,0,0,0-9.54,0v12.41Zm8.09,0V212.13a2.87,2.87,0,0,1,5.73,0v12.41Zm20.05,0V212.13a2.86,2.86,0,0,1,5.72,0v12.41Zm20,0V212.13a2.87,2.87,0,0,1,5.73,0v12.41Zm-48,1.91h63.25V260.8h-7.63V248.4a4.78,4.78,0,0,0-9.55,0v12.4h-10.5V248.4a4.77,4.77,0,1,0-9.54,0v12.4H90.35V248.4a4.77,4.77,0,1,0-9.54,0v3.76c-.63-1.72-1.21-3.45-1.76-5.22a6.69,6.69,0,0,1,13.08.14l1.87-.37A8.59,8.59,0,0,0,78.19,244a113.06,113.06,0,0,1-3.38-17.56m7.9,30.6V248.4a2.87,2.87,0,1,1,5.73,0v12.4H84.36q-.85-1.86-1.65-3.75m20.05,3.75V248.4a2.86,2.86,0,1,1,5.72,0v12.4Zm20,0V248.4a2.87,2.87,0,1,1,5.73,0v12.4Zm-37.52,1.91h52.79v5.72H88.25c-1-1.87-2-3.78-3-5.72m4.07,7.63h43.95v21h-2.86v-12.4a4.78,4.78,0,0,0-9.55,0v12.4H110.4v-12.4a4.77,4.77,0,0,0-4.78-4.77,5,5,0,0,0-1,.09,4.78,4.78,0,0,0-3.82,4.68v7.58a112.45,112.45,0,0,1-11.5-16.17m13.42,16.38h0v-7.79a2.85,2.85,0,0,1,2.28-2.8,2.79,2.79,0,0,1,.58-.07,2.86,2.86,0,0,1,2.86,2.87v12.4h-3.27c-.83-.86-1.65-1.75-2.45-2.64Zm20,4.61v-12.4a2.87,2.87,0,1,1,5.73,0v12.4Zm-15.7,1.91h26.2V299h-20c-2.14-1.82-4.22-3.74-6.21-5.72m31-17.18v28.62H135.2V270.34h2.86Zm-22.47,24.81h17.7v5.73h28.62v-5.73H180.1v9.55h-6.74v1.9h23.86v-1.9h-5.79v-9.55h18.19v5.73h28.63v-5.73h17.69a111.65,111.65,0,0,1-140.35,0M258.24,299h-20v-5.72h26.2c-2,2-4.07,3.9-6.21,5.72m8.08-7.63h-3.26v-12.4a2.86,2.86,0,0,1,2.86-2.87,2.79,2.79,0,0,1,.58.07,2.85,2.85,0,0,1,2.28,2.8v7.79h0v2c-.81.89-1.62,1.78-2.46,2.64m-20.44-15.27a2.86,2.86,0,0,1,2.86,2.87v12.4H243v-12.4a2.86,2.86,0,0,1,2.86-2.87m21-1.81a5.07,5.07,0,0,0-1-.09,4.77,4.77,0,0,0-4.77,4.77v12.4H250.66v-12.4a4.78,4.78,0,0,0-9.55,0v12.4h-2.86v-21h43.94a111.67,111.67,0,0,1-11.5,16.17v-7.58a4.78,4.78,0,0,0-3.81-4.68m-30.54-3.91v34.34h-2.86V270.34Zm47-1.91H233.47v-5.72h52.79q-1.41,2.91-3,5.72m3.89-7.63H283.1V248.4a2.86,2.86,0,1,1,5.72,0v8.65c-.53,1.26-1.07,2.51-1.64,3.75m-21.26-15.27a2.86,2.86,0,0,1,2.86,2.87v12.4h-5.72V248.4a2.86,2.86,0,0,1,2.86-2.87m-20,0a2.86,2.86,0,0,1,2.86,2.87v12.4H243V248.4a2.86,2.86,0,0,1,2.86-2.87m40.08-1.9a4.77,4.77,0,0,0-4.77,4.77v12.4h-10.5V248.4a4.77,4.77,0,1,0-9.54,0v12.4H250.66V248.4a4.78,4.78,0,0,0-9.55,0v12.4h-7.63V226.45h63.25A111.91,111.91,0,0,1,293.34,244a8.59,8.59,0,0,0-15.8,2.7l1.87.37a6.68,6.68,0,0,1,13.07-.14c-.54,1.77-1.13,3.5-1.75,5.22V248.4a4.77,4.77,0,0,0-4.77-4.77m0-34.36a2.86,2.86,0,0,1,2.86,2.86v12.41H283.1V212.13a2.86,2.86,0,0,1,2.86-2.86m-20,0a2.86,2.86,0,0,1,2.86,2.86v12.41h-5.72V212.13a2.86,2.86,0,0,1,2.86-2.86m-20,0a2.86,2.86,0,0,1,2.86,2.86v12.41H243V212.13a2.86,2.86,0,0,1,2.86-2.86m51,15.27h-6.19V212.13a4.77,4.77,0,0,0-9.54,0v12.41h-10.5V212.13a4.77,4.77,0,0,0-9.54,0v12.41H250.66V212.13a4.78,4.78,0,0,0-9.55,0v12.41h-7.63V188.27h0V164.42h5.72v-3.81a1,1,0,1,1,1.91,0v3.81h5.73v-3.81a1,1,0,1,1,1.9,0v3.81h5.73v-3.81a1,1,0,1,1,1.91,0v3.81h5.72v-3.81a1,1,0,0,1,1.92,0v3.81h5.72v-3.81a1,1,0,1,1,1.9,0v3.81h5.73v-3.81a1,1,0,1,1,1.91,0v3.81h6.53c.48,1,.95,2,1.4,3a8.66,8.66,0,0,0-1.25-.09,8.61,8.61,0,0,0-8.39,6.74.9.9,0,0,0,0,.16l1.87.37c0-.18.08-.35.13-.53h0a6.59,6.59,0,0,1,1.52-2.69,6.67,6.67,0,0,1,4.9-2.15,6.74,6.74,0,0,1,2.25.4c.44,1,.87,2,1.28,3.07a4.82,4.82,0,0,0-2.06-1.32h0a4.44,4.44,0,0,0-1.47-.24,4.55,4.55,0,0,0-1.48.24h0a4.72,4.72,0,0,0-2.92,2.69h2.21a2.86,2.86,0,0,1,2.19-1,2.89,2.89,0,0,1,2.19,1,2.85,2.85,0,0,1,.67,1.84v6.24h0v6.17H283.1V175.87a2.85,2.85,0,0,1,.67-1.84h-2.21a4.69,4.69,0,0,0-.37,1.84v6.24h0v6.17h-10.5V175.87a4.69,4.69,0,0,0-.37-1.84,4.74,4.74,0,0,0-2.92-2.69,4.68,4.68,0,0,0-3,0h0a4.72,4.72,0,0,0-2.92,2.69h2.21a2.86,2.86,0,0,1,5,1.84v6.24h0v6.17h-5.72V175.87a2.85,2.85,0,0,1,.67-1.84h-2.21a4.69,4.69,0,0,0-.37,1.84v6.24h0v6.17H250.66V175.87a4.76,4.76,0,0,0-3.3-4.53,4.44,4.44,0,0,0-1.47-.24,4.59,4.59,0,0,0-1.48.24h0a4.74,4.74,0,0,0-2.92,2.69h2.21a2.87,2.87,0,0,1,5.06,1.84v6.24h0v6.17H243V175.87a2.85,2.85,0,0,1,.67-1.84h-2.21a4.69,4.69,0,0,0-.37,1.84v6.24h0v6.17h-7.64v1.91h61.37A111.51,111.51,0,0,1,297.41,214c0,3.54-.17,7-.49,10.5m-2.5-36.26h-3.69V175.92a110.83,110.83,0,0,1,3.69,12.36m-9.59-25.77h-3.64v-1.9a2.87,2.87,0,1,0-5.73,0v1.9h-1.9v-1.9a2.87,2.87,0,1,0-5.73,0v1.9h-1.91v-1.9a2.86,2.86,0,1,0-5.72,0v1.9h-1.92v-1.9a2.86,2.86,0,1,0-5.72,0v1.9h-1.9v-1.9a2.87,2.87,0,1,0-5.73,0v1.9H243v-1.9a2.86,2.86,0,1,0-5.72,0v1.9h-1.92v-6.68h45.67c1.33,2.18,2.6,4.42,3.78,6.68m-5-8.58H235.38v-2.87H278c.65.95,1.28,1.91,1.9,2.87m-3.23-4.78H237.3v-4.77H224.66l-38.9-34-38.89,34H134.25v4.77H94.91a111.67,111.67,0,0,1,181.72,0M93.57,151.06h42.58v2.87H91.68c.62-1,1.25-1.92,1.89-2.87m42.58-1.91v-2.86H147.6l38.16-33.42,38.18,33.42h11.44v2.86H222.75l-37-32.37-37,32.37Zm1.91,1.91h6.68v11.45h-6.68ZM140,277.69V164.42h2.86V278H140Zm0,1.71h15.27v2.39H140Zm0,3.82h15.27v2.38H140Zm0,3.82h15.27v2.38H140Zm0,3.81h15.27v2.39H140Zm0,3.82h15.27v2.39H140Zm0,3.82h15.27v2.39H140Zm15.27,6.19H140V302.3h15.27Zm6.67-31.54v-2.55l6.68-5.65v2.56Zm0,18.19V275.39l6.68-5.64v21.58Zm6.68,7.63h-6.68v-5.72h6.68ZM158.1,260.8h-5.73V246.49a2.87,2.87,0,0,1,5.73,0Zm4.77-17.17a2.85,2.85,0,0,1,2.86,2.86V260.8H160V246.49a2.85,2.85,0,0,1,2.86-2.86m-3.82,0a4.76,4.76,0,0,0-3.81-1.91,5,5,0,0,0-1,.1,6.69,6.69,0,0,1,9.54,0,5,5,0,0,0-.95-.1,4.77,4.77,0,0,0-3.82,1.91m43.89,23.88v-2.56l6.68,5.65v2.55Zm0,23.83V269.75l6.68,5.64v15.94Zm6.68,7.63h-6.68v-5.72h6.68Zm9.54-52.47V260.8h-5.72V246.49a2.86,2.86,0,1,1,5.72,0m-10.5-2.86a2.86,2.86,0,0,1,2.87,2.86V260.8H205.8V246.49a2.86,2.86,0,0,1,2.86-2.86m-.95-1.82a6.7,6.7,0,0,1,9.55,0,5,5,0,0,0-1-.1,4.77,4.77,0,0,0-3.82,1.91,4.74,4.74,0,0,0-3.82-1.91,5,5,0,0,0-.95.1m8.59,40V279.4h15.27v2.39Zm0,3.81v-2.38h15.27v2.38Zm0,1.44h15.27v2.38H216.3Zm0,3.81h15.27v2.39H216.3Zm0,3.82h15.27v2.39H216.3Zm15.27,10H216.3V302.3h15.27Zm-15.27-6.19h15.27v2.39H216.3Zm15.27-134.07V278h-2.86V164.42Zm-4.77-13.36h6.67v11.45H226.8Zm-21,37.22V175.87a2.87,2.87,0,0,1,5.73,0v12.41Zm-19.08,0V175.87a2.86,2.86,0,1,1,5.72,0v12.41Zm29.4,0h-2.68V175.87a2.86,2.86,0,1,1,5.72,0v12.41Zm-4.59,36.26H205.8V210.23a2.87,2.87,0,0,1,5.73,0Zm4.77-17.17a2.86,2.86,0,0,1,2.86,2.86v14.31h-5.72V210.23a2.86,2.86,0,0,1,2.86-2.86m-3.82,0a4.73,4.73,0,0,0-3.81-1.91,4.85,4.85,0,0,0-.95.1,6.69,6.69,0,0,1,9.54,0,5,5,0,0,0-1-.1,4.78,4.78,0,0,0-3.82,1.91m-20,2.87v14.31h-5.72V210.23a2.86,2.86,0,0,1,5.72,0M182,207.37a2.85,2.85,0,0,1,2.86,2.86v14.31h-5.72V210.23a2.86,2.86,0,0,1,2.86-2.86M158.1,224.54h-5.73V210.23a2.87,2.87,0,0,1,5.73,0Zm4.77-17.17a2.86,2.86,0,0,1,2.86,2.86v14.31H160V210.23a2.85,2.85,0,0,1,2.86-2.86m-3.82,0a4.76,4.76,0,0,0-3.81-1.91,5,5,0,0,0-1,.1,6.69,6.69,0,0,1,9.54,0,5,5,0,0,0-.95-.1,4.77,4.77,0,0,0-3.82,1.91M182,173a2.85,2.85,0,0,1,2.86,2.86v12.41h-5.72V175.87A2.86,2.86,0,0,1,182,173m-19.08,0a2.86,2.86,0,0,1,2.86,2.86v12.41H160V175.87a2.85,2.85,0,0,1,2.86-2.86m-7.63,0a2.87,2.87,0,0,1,2.86,2.86v12.41h-5.73V175.87a2.86,2.86,0,0,1,2.87-2.86m71.56-8.59v23.86h-5.73V175.87a4.77,4.77,0,0,0-8.59-2.86,4.77,4.77,0,0,0-8.58,2.86v12.41h-9.55V175.87a4.77,4.77,0,0,0-8.59-2.86v17.18h41v34.35h-5.73V210.23a8.59,8.59,0,1,0-17.17,0v14.31h-9.55V210.23a8.59,8.59,0,1,0-17.17,0v14.31h-9.54V210.23a8.59,8.59,0,1,0-17.17,0v14.31h-5.73V190.19h41V173a4.77,4.77,0,0,0-8.58,2.86v12.41h-9.54V175.87a4.77,4.77,0,0,0-8.59-2.86,4.77,4.77,0,0,0-8.58,2.86v12.41h-5.73V164.42h1.91V159a1,1,0,0,1,.95-.75,1,1,0,0,1,1,1V162h5.72v-9.55a1,1,0,0,1,1.91,0v2.87h5.73v-9.54a1,1,0,1,1,1.9,0v2.86h5.74v-9.55a1,1,0,0,1,1.91,0V142h5.73v-9.54a1,1,0,0,1,1.92,0v2.86h5.72v-9.54a1,1,0,1,1,1.9,0v9.54h5.74v-2.86a1,1,0,1,1,1.9,0V142h5.72v-2.87a1,1,0,0,1,1.92,0v9.55h5.73v-2.86a1,1,0,1,1,1.91,0v9.54h5.74v-2.87a1,1,0,0,1,1.9,0V162H223v-2.86a1,1,0,0,1,1.9-.11v5.35Zm-74.42-11.93v7.64h-1.91v-.95a2.87,2.87,0,0,0-2.87-2.87,3,3,0,0,0-.95.16V155h0v-4h2.86l36.25-31.74L222,151.06h2.87v5.41a3,3,0,0,0-.95-.16,2.87,2.87,0,0,0-2.86,2.87v.95h-1.91v-7.64a2.87,2.87,0,0,0-5.73,0v1h-1.91v-7.63a2.87,2.87,0,1,0-5.73,0v1H203.9v-7.64a2.86,2.86,0,0,0-5.72,0v1h-1.91v-7.63a2.87,2.87,0,1,0-5.73,0v.95h-1.91v-7.63a2.87,2.87,0,0,0-5.73,0v7.63H181v-.95a2.86,2.86,0,1,0-5.72,0v7.63h-1.91v-1a2.87,2.87,0,0,0-5.73,0v7.64h-1.9v-1a2.87,2.87,0,1,0-5.73,0v7.63H158.1v-1a2.86,2.86,0,1,0-5.72,0m62,117.85v34.34h-2.87V270.34Zm-4.68-1.91-6.78-5.72H226.8V278H216.3v-9.54Zm-10.18,23.74v-5.61h-1.37V262.71H201V299h-2.87v-6.49Zm-12.8-15.4,3.77,1.91-.39,6h-8.71l-.39-6,3.79-1.91-1.76-4,2.71-2.07,2.73,2.07Zm-9.5,7.89v1.9h-2V267.48h21v19.08h-2v-1.9h-2.39l.47-7-3.33-1.68,1.64-3.76-4.93-3.75-4.91,3.75,1.64,3.76-3.33,1.68.47,7Zm19-22v2.86h-21v-2.86h21Zm-3.82-1.91h-.95V245.53h1.91V260.8Zm-9.54-15.27v-1.9h-1a3.82,3.82,0,1,1,7.63,0h-1v1.9h1V260.8H182V245.53Zm-2.86,0V260.8h-1.91V245.53Zm-2.86-1.9v-4.78l8.58-6.39,8.59,6.39v4.78h-2.86a5.73,5.73,0,1,0-11.45,0Zm19.08,49.25V299h-4.83v-5Zm-6.62,17.54h-7.75V294.08h7.75Zm-15.86-19.69v-2.37H179v-1.91H192.5v1.91h5.25v2.37l-7.31,1.56h-9.35Zm1.49,5.37v-3.22l4.83,1v5h-4.83Zm-7.63-35.3V246.49a8.59,8.59,0,1,0-17.17,0V260.8h-5.73V226.45h41V207.36a4.73,4.73,0,0,0-3.81-1.91,5.21,5.21,0,0,0-1,.1,6.7,6.7,0,0,1,9.55,0,5,5,0,0,0-1-.1,4.78,4.78,0,0,0-3.82,1.91v19.09h41V260.8h-5.73V246.49a8.59,8.59,0,1,0-17.17,0V260.8h-8.59V245.53h1.91v-1.9h-1v-3.82h1.91V237.9h-1.91l-9.54-7.29v-2.26h-1.91v2.26l-9.54,7.29h-1.91v1.91h1.91v3.82h-1v1.9h1.9V260.8h-8.58ZM172,286.56v5.61l1.37.3V299H170.5V262.71h2.86v23.85Zm-12-10.5v28.62h-2.87V270.34H160Zm-4.77-7.63V278h-10.5V262.71h23.85l-6.77,5.72ZM90.49,155.83h45.66v6.68h-1.9v-1.9a2.87,2.87,0,1,0-5.73,0v1.9h-1.91v-1.9a2.87,2.87,0,1,0-5.73,0v1.9H119v-1.9a2.87,2.87,0,1,0-5.73,0v1.9h-1.91v-1.9a2.86,2.86,0,1,0-5.72,0v1.9h-1.91v-1.9a2.87,2.87,0,1,0-5.73,0v1.9H96.07v-1.9a2.86,2.86,0,1,0-5.72,0v1.9H86.7c1.19-2.26,2.45-4.5,3.79-6.68m-9.68,32.45H77.12a108.75,108.75,0,0,1,3.69-12.36v12.36ZM71.38,214A114.39,114.39,0,1,0,185.76,99.6,114.38,114.38,0,0,0,71.38,214M82.15,304.5l-.53.52,1.14,1.08.79.75c.7.71,1.44,1.41,2.12,2.16.39.38.76.77,1.13,1.17l.53-.53a16.31,16.31,0,0,1-1.24-1.51,1.22,1.22,0,0,1-.25-.9,2.2,2.2,0,0,1,.42-1.16,10.4,10.4,0,0,1,1.43-1.7c.53-.53,4.75-5.32,6.85-6.33a5.2,5.2,0,0,1,2-.55,4.51,4.51,0,0,1,1.9.38,6.43,6.43,0,0,1,2.88,2.77,3.77,3.77,0,0,1,.45,1.72,4.42,4.42,0,0,1-.53,1.92,9.13,9.13,0,0,1-1.7,2.22l-6.07,6.08a4.45,4.45,0,0,1-.85.72,1,1,0,0,1-.66.22,1.52,1.52,0,0,1-.74-.23,8.84,8.84,0,0,1-1.25-1l-.51.52c.44.41.88.83,1.31,1.26,1.11,1,2.2,2.11,3.23,3.22.42.42.84.86,1.25,1.29l.52-.52a6.92,6.92,0,0,1-1-1.25,1.3,1.3,0,0,1-.24-.73,1.12,1.12,0,0,1,.21-.66,6.58,6.58,0,0,1,.73-.86l6.77-6.79a5.93,5.93,0,0,0,1.34-1.9,5,5,0,0,0,.4-1.81,4.87,4.87,0,0,0-.28-1.71,7.84,7.84,0,0,0-.73-1.48,10.37,10.37,0,0,0-1-1.26,12,12,0,0,0-2.68-2.35,6.14,6.14,0,0,0-2.28-.83,5.89,5.89,0,0,0-2.6.29,7.27,7.27,0,0,0-2.8,1.86l-4.88,4.91c-.54.54-1.87,1.92-2.68,2.09a1,1,0,0,1-.78-.14,8.5,8.5,0,0,1-1.25-1M67.38,284.07l-.64.42c.28.38.57.76.83,1.16.77,1,1.5,2.1,2.17,3.2.29.42.56.86.84,1.29l.63-.43a8.22,8.22,0,0,1-.83-1.58,1.09,1.09,0,0,1,0-.87,2.24,2.24,0,0,1,.73-1,19.64,19.64,0,0,1,1.73-1.3L80,280.17l.1-.29-4.36,17.88,2.07,3.06.62-.43a7.49,7.49,0,0,1-.73-1.44,1,1,0,0,1,.06-.85,3.64,3.64,0,0,1,1-1.14c2-1.66,7.69-5.33,8.53-5.9a16.88,16.88,0,0,1,1.67-1,3,3,0,0,1,1.17-.36,1.41,1.41,0,0,1,.9.21A4.52,4.52,0,0,1,92.12,291l.63-.42c-.25-.37-.49-.73-.76-1.08l-.52-.77c-.36-.48-.69-1-1-1.49l-.64-.94c-.28-.46-.58-.91-.88-1.35l-.63.42a11.57,11.57,0,0,1,.81,1.51,1.27,1.27,0,0,1,0,.9,2.48,2.48,0,0,1-.7,1,13.81,13.81,0,0,1-1.76,1.33l-7.11,4.81-.11.28L84,276.93l-.42-.61L72.18,284a15.11,15.11,0,0,1-1.64,1,4,4,0,0,1-1.18.39,1.44,1.44,0,0,1-.88-.23,4.5,4.5,0,0,1-1.1-1.12m-5.89-11.48-.68.35c.3.53.58,1.07.87,1.6.73,1.33,1.43,2.69,2.06,4.07.28.53.55,1.06.8,1.61l.68-.35a6.86,6.86,0,0,1-.53-1.48,1.26,1.26,0,0,1,0-.77,1.17,1.17,0,0,1,.42-.57,5.51,5.51,0,0,1,1-.59L76.74,271a5.54,5.54,0,0,1,1.05-.44,1.19,1.19,0,0,1,1.32.45,9.67,9.67,0,0,1,.88,1.31l.67-.35c-.28-.53-.56-1.06-.85-1.59l-.58-1.13c-.32-.59-.63-1.18-.92-1.8l-.57-1.12c-.26-.55-.54-1.1-.81-1.64l-.68.34a9.4,9.4,0,0,1,.56,1.48,1.82,1.82,0,0,1,0,.77,1.14,1.14,0,0,1-.42.55,5.3,5.3,0,0,1-1,.61l-10.69,5.47a5,5,0,0,1-1,.43,1.16,1.16,0,0,1-.69,0,1.49,1.49,0,0,1-.63-.46,8.09,8.09,0,0,1-.89-1.3m-7.8-20-.7.26c.14.34.29.67.41,1A27.16,27.16,0,0,1,54.55,257c.15.43.29.85.42,1.28l.73-.27a2.37,2.37,0,0,1-.19-1.41c.19-.52.64-.6,1.11-.63.26,0,.63,0,1.08,0s11.49.13,11.49.13l.28-.16q-4,3.53-8.08,7l-1.94,1.64s-.7.66-.89.54a1.24,1.24,0,0,1-.28-.31,4.15,4.15,0,0,1-.26-.59c-.14-.34-.27-.66-.39-1l-.72.26c.2.52.41,1.05.6,1.57.51,1.24,1,2.51,1.38,3.77.17.46.32.93.47,1.38l.72-.26a4.74,4.74,0,0,1-.2-1,.9.9,0,0,1,.09-.48,1.85,1.85,0,0,1,.45-.55c.22-.24.52-.53.91-.88l12.29-11.06-.4-1.06-14.8-.28c-.81,0-1.48,0-2-.08a4.57,4.57,0,0,1-1.25-.25,2,2,0,0,1-.77-.54,4.17,4.17,0,0,1-.7-1.23m-3.4-17-1.27.21a16.78,16.78,0,0,1,.54,1.7c0,.25.12.5.18.74.3,1.39.59,2.79.92,4.18.14.61.27,1.21.41,1.75.26,1.21.54,2.42.75,3.64.13.58.24,1.17.35,1.77l.7-.16a6.81,6.81,0,0,1-.13-1.56,1.35,1.35,0,0,1,.19-.75,1.17,1.17,0,0,1,.54-.44,5.25,5.25,0,0,1,1.08-.32l11.78-2.53a6,6,0,0,1,1.14-.15,1.21,1.21,0,0,1,1.16.78,8.42,8.42,0,0,1,.5,1.49l.74-.16c-.13-.59-.26-1.17-.4-1.76l-.27-1.24c-.11-.42-.18-.75-.24-1l-1.48-7.25-.12-.58c0-.24-.09-.49-.14-.75l-.12-.78c0-.31-.06-.63-.11-1l-2.56.33c-.87.1-1.74.16-2.62.22l.15.73a9,9,0,0,1,2.12.38,3.64,3.64,0,0,1,1.32.72,3.46,3.46,0,0,1,.9,1.13,10.62,10.62,0,0,1,.85,3.77,2.48,2.48,0,0,1-.28,1.28,2.19,2.19,0,0,1-1,.77,48.9,48.9,0,0,1-5.71,1.37,18.55,18.55,0,0,1-.57-3.33,2.68,2.68,0,0,1,.17-1.16,1.47,1.47,0,0,1,.57-.72,4,4,0,0,1,1.41-.59l-.16-.75-1.54.39-1,.27-1.56.34-1,.16-1.49.26.16.74a3.61,3.61,0,0,1,1.35,0,2.15,2.15,0,0,1,1,.46,3.58,3.58,0,0,1,.82,1.05,12.88,12.88,0,0,1,.89,3.11L52,244a20.67,20.67,0,0,1-.69-4.49,4.56,4.56,0,0,1,.34-1.89,2.56,2.56,0,0,1,.92-1.13,17.82,17.82,0,0,1,1.67-1l-.16-.7-1.46.38-2.36.5M50,219.16a5,5,0,0,1,4.53-.88,3.22,3.22,0,0,1,1.25.69,3.53,3.53,0,0,1,.93,1.19A6.45,6.45,0,0,1,57.1,223c0,.24-.05.5-.1.76l-7.85.27a3.53,3.53,0,0,0-.06-.42c0-.22-.05-.45-.07-.7-.13-1.33-.14-2.73,1-3.7m-1.72-.57c-.54,1.65-.34,4.25-.19,6,0,1,.09,2.1.09,3.15,0,.6,0,1.2,0,1.81l.77,0A6.33,6.33,0,0,1,49.1,228a1.31,1.31,0,0,1,.32-.7,1.15,1.15,0,0,1,.62-.34,5,5,0,0,1,1.11-.13l12-.44a6.81,6.81,0,0,1,1.15,0,1.21,1.21,0,0,1,1,1,10.12,10.12,0,0,1,.23,1.56l.76,0c0-.6-.06-1.21-.1-1.8l0-1.27c-.05-.65-.08-1.29-.08-1.94l0-1.15c0-.54,0-1.07,0-1.6l-.76,0a6.67,6.67,0,0,1-.11,1.48,1.33,1.33,0,0,1-.3.55,1.42,1.42,0,0,1-.61.23c-2,.17-4.24.18-6.07.25,0-.13,0-.23,0-.34s0-.37,0-.53a4,4,0,0,1,0-.49l0-.46,6.2-4.79a4.73,4.73,0,0,0,.73-.65,2.58,2.58,0,0,0,.49-1,18.57,18.57,0,0,0,.16-4.53l-.74,0a8.1,8.1,0,0,1-.13.86,5.14,5.14,0,0,1-.17.64,3.7,3.7,0,0,1-.34.65,4.51,4.51,0,0,1-1,1.07c-.56.47-1.21,1-1.93,1.55l-2.31,1.74c-.66.5-1.28,1-1.83,1.4a6.74,6.74,0,0,0-.81-1.76,8.46,8.46,0,0,0-.61-.76,3.42,3.42,0,0,0-.85-.7,4.13,4.13,0,0,0-1-.46,4.66,4.66,0,0,0-3.16.27,4,4,0,0,0-1.59,1.17,5.52,5.52,0,0,0-1,2M50.36,197l-1.28-.17,0,.54a6.17,6.17,0,0,1-.2,1l-.28.88c-.09.3-.17.64-.26,1a8,8,0,0,0,0,3.55,6.25,6.25,0,0,0,.78,1.92,4.5,4.5,0,0,0,1.39,1.39,4.55,4.55,0,0,0,3.67.48,5.21,5.21,0,0,0,1.45-.84,9,9,0,0,0,1.33-1.4c.43-.56.89-1.19,1.39-1.9s.88-1.21,1.24-1.67a6.16,6.16,0,0,1,1-1.06,2.48,2.48,0,0,1,.93-.53,3.3,3.3,0,0,1,2.25.18,2.54,2.54,0,0,1,1,.61,3.08,3.08,0,0,1,.65,1.08,5.13,5.13,0,0,1-.41,3.55,4.54,4.54,0,0,1-1.11,1.27,6.08,6.08,0,0,1-1.51.81,13.61,13.61,0,0,1-1.89.54l-.06.74a25.11,25.11,0,0,1,2.6,0l2.58.09a8.16,8.16,0,0,1,.22-1.47c.07-.34.16-.69.23-1a10.1,10.1,0,0,0,.31-4.91,6.77,6.77,0,0,0-.83-2.22A5.05,5.05,0,0,0,64,197.81a4.55,4.55,0,0,0-3.83-.59,3.93,3.93,0,0,0-1.41.82,9,9,0,0,0-1.34,1.47c-.45.58-1,1.28-1.57,2.11s-1,1.27-1.33,1.72a8.55,8.55,0,0,1-1,1,2,2,0,0,1-.78.39,3.51,3.51,0,0,1-1.92-.21,3.35,3.35,0,0,1-.92-.55,2.49,2.49,0,0,1-.59-.87,3.78,3.78,0,0,1,.38-3A3.38,3.38,0,0,1,50.68,199a4.85,4.85,0,0,1,1.5-.59,15.62,15.62,0,0,1,1.93-.36l.06-.73-1.53-.07-1.27-.11Zm1.76-14.85-.75-.16c-.1.6-.22,1.2-.35,1.8-.25,1.49-.56,3-.93,4.45-.12.59-.27,1.18-.4,1.76l.74.15a7.64,7.64,0,0,1,.52-1.48,1.33,1.33,0,0,1,.48-.6,1.2,1.2,0,0,1,.68-.18,5.91,5.91,0,0,1,1.11.13L65,190.52a6.79,6.79,0,0,1,1.1.32,1.2,1.2,0,0,1,.74,1.19,9.26,9.26,0,0,1-.14,1.57l.73.15c.13-.59.25-1.18.35-1.77l.26-1.24c.12-.67.25-1.32.41-2l.27-1.24c.14-.6.27-1.19.4-1.79l-.74-.15a9.66,9.66,0,0,1-.5,1.49,1.7,1.7,0,0,1-.48.6,1.17,1.17,0,0,1-.67.18,5.86,5.86,0,0,1-1.14-.14l-11.75-2.48a5,5,0,0,1-1.07-.32,1.07,1.07,0,0,1-.54-.44,1.3,1.3,0,0,1-.21-.74,7.51,7.51,0,0,1,.13-1.57M62.52,164,61,163.49l-2.4-.81-1.21-.49a14.66,14.66,0,0,1-.41,1.74c-.08.25-.15.48-.22.73-.35,1-.72,2-1,3.07l-.35,1-.72,2.07-.34,1c-.33.83-.6,1.69-.9,2.54l-.19.57a5.59,5.59,0,0,0-.27.73l-.3.71a9.2,9.2,0,0,1-.44.89c.42.12.84.24,1.24.38.81.23,1.6.52,2.39.82.52.17,1,.36,1.53.56l.24-.68a16,16,0,0,1-1.67-1.27,3.54,3.54,0,0,1-.9-1.17,3,3,0,0,1-.27-1.5,10.11,10.11,0,0,1,.71-2.89c.68.21,1.41.44,2.19.71,3.71,1.2,7.42,2.51,11.09,3.77a6.87,6.87,0,0,1,1.05.46,1.17,1.17,0,0,1,.49.5,1.58,1.58,0,0,1,.11.76,9,9,0,0,1-.35,1.54l.72.24c.2-.56.39-1.14.56-1.71l.41-1.2c.2-.65.41-1.28.66-1.91l.41-1.19c.21-.58.42-1.15.61-1.73l-.71-.25A9.15,9.15,0,0,1,72,173a1.67,1.67,0,0,1-.54.53,1.17,1.17,0,0,1-.69.08,7.31,7.31,0,0,1-1.11-.27l-8.66-3-2.42-.83c-.78-.28-1.49-.55-2.16-.81A10.16,10.16,0,0,1,57.64,166a3,3,0,0,1,1.11-.93,4,4,0,0,1,1.43-.38,14.72,14.72,0,0,1,2.1,0Zm9.92-8.82a42.69,42.69,0,0,1-2.26,4.52l-4.7-5.32-.26-.08,1.13.15c1.46.15,2.92.31,4.36.52l1.73.21M78.85,153l-16.28-1.78-.51,1,9.73,11.27c.47.56.86,1.07,1.18,1.52a5.53,5.53,0,0,1,.65,1.16,2.89,2.89,0,0,1,.17,1.05,4,4,0,0,1-.41,1.37l.65.33c.17-.32.34-.66.48-1l.34-.67a14.68,14.68,0,0,1,.75-1.48l.45-.88c.23-.42.44-.84.66-1.25l-.68-.35c-.21.4-.44.93-.87,1.13a.85.85,0,0,1-1-.27c-.15-.14-.37-.37-.65-.67s-.62-.72-1-1.19-.91-1-1.46-1.67c.14-.28.21-.42.36-.74l.48-1c.29-.61,1-2,1.4-2.7l.4-.72.09-.17c.59.09,1.19.16,1.8.24s1.24.15,1.79.23,1,.13,1.4.19a3.45,3.45,0,0,1,.56.1c.08,0,.12.06.13.15a.71.71,0,0,1,0,.36c-.06.19-.14.39-.23.62l-.48.94.69.35c.24-.48.47-1,.7-1.45l.5-1c.26-.55.53-1.08.83-1.62l.5-1c.26-.45.49-.92.74-1.4l-.68-.33a8.73,8.73,0,0,1-.58.91,1.44,1.44,0,0,1-.49.34,2.41,2.41,0,0,1-.75.13,11.78,11.78,0,0,1-1.25-.1m9.54-9.12a7,7,0,0,0,.38-2.33,5.13,5.13,0,0,0-.51-2.17,4.55,4.55,0,0,0-3-2.43,4,4,0,0,0-1.62,0,8.27,8.27,0,0,0-1.9.61c-.69.27-1.49.61-2.42,1s-1.47.63-2,.82a6.92,6.92,0,0,1-1.38.32,1.89,1.89,0,0,1-.88,0,3.57,3.57,0,0,1-1.55-1.13,3.2,3.2,0,0,1-.53-1,2.42,2.42,0,0,1-.07-1,3.71,3.71,0,0,1,1.84-2.41,3.13,3.13,0,0,1,1.47-.41,4.71,4.71,0,0,1,1.59.23,16.72,16.72,0,0,1,1.84.65L80,134c-.43-.27-.86-.54-1.28-.83-.19-.12-1.79-1.24-1.88-1.31l-1-.78-.3.43a6.67,6.67,0,0,1-.67.76l-.68.63c-.24.23-.48.47-.72.74a7.94,7.94,0,0,0-1.8,3.05,6.51,6.51,0,0,0-.29,2.07,4.67,4.67,0,0,0,.5,1.9,4.51,4.51,0,0,0,3,2.23,4.63,4.63,0,0,0,1.66,0,8.55,8.55,0,0,0,1.86-.54c.65-.26,1.37-.58,2.16-1s1.37-.61,1.9-.83a5.93,5.93,0,0,1,1.43-.4,2.56,2.56,0,0,1,1.07,0,3.45,3.45,0,0,1,1.87,1.29,2.56,2.56,0,0,1,.53,1,3.06,3.06,0,0,1,0,1.25,5.16,5.16,0,0,1-2.12,2.88,4.94,4.94,0,0,1-1.61.54,5.73,5.73,0,0,1-1.7-.06,12.27,12.27,0,0,1-1.9-.47l-.43.61c.78.4,1.54.8,2.28,1.27s1.45.9,2.18,1.36a8.09,8.09,0,0,1,.92-1.16l.7-.75a10.33,10.33,0,0,0,2.74-4.1m10.26-29.79.54-.49c-.37-.36-.72-.73-1.09-1.08l-.86-.94-.68-.74-.83-1-.41.36a5.25,5.25,0,0,1-.8.59l-.8.47c-.28.17-.56.35-.87.56a8,8,0,0,0-2.41,2.6,5.87,5.87,0,0,0-.73,2,4.84,4.84,0,0,0,.08,2,4.52,4.52,0,0,0,2.38,2.82,5.1,5.1,0,0,0,1.64.36,9.43,9.43,0,0,0,1.93-.13c.69-.12,1.46-.28,2.31-.47s1.47-.3,2-.39a6.66,6.66,0,0,1,1.48-.09,2.8,2.8,0,0,1,1,.24,3.39,3.39,0,0,1,1.55,1.66,2.42,2.42,0,0,1,.29,1.11,2.88,2.88,0,0,1-.25,1.23,5.06,5.06,0,0,1-2.69,2.34,4.63,4.63,0,0,1-1.68.19,6.23,6.23,0,0,1-1.66-.42,13.14,13.14,0,0,1-1.76-.88l-.55.51a21.45,21.45,0,0,1,2,1.73c.62.59,1.22,1.19,1.83,1.8a7.39,7.39,0,0,1,1.16-.93c.29-.22.58-.41.84-.6a10.17,10.17,0,0,0,3.56-3.4,6.76,6.76,0,0,0,.88-2.19,5.23,5.23,0,0,0,0-2.23,4.54,4.54,0,0,0-2.43-3,3.79,3.79,0,0,0-1.59-.35,8.55,8.55,0,0,0-2,.18c-.73.12-1.59.28-2.58.49s-1.58.3-2.15.36a7.77,7.77,0,0,1-1.42,0,2.21,2.21,0,0,1-.85-.24,3.6,3.6,0,0,1-1.27-1.46,3.14,3.14,0,0,1-.3-1,2.48,2.48,0,0,1,.15-1,3.71,3.71,0,0,1,2.32-2,3.29,3.29,0,0,1,1.52-.08A4.93,4.93,0,0,1,97,113a15.56,15.56,0,0,1,1.67,1m10.65-11c-.47-.67-.91-1.31-1.29-1.91a9.86,9.86,0,0,1,2.59-1.54,2.69,2.69,0,0,1,1.44-.11,3.76,3.76,0,0,1,1.39.52,13.6,13.6,0,0,1,1.7,1.23l.59-.43c-.33-.43-.67-.85-1-1.29l-.86-1.21-.61-.85c-.24-.36-.47-.72-.7-1.09a15,15,0,0,1-1.35,1.18c-.21.15-.41.31-.6.46-.87.62-1.77,1.24-2.62,1.9l-2.67,1.92-.87.62c-.75.49-1.48,1-2.2,1.55l-.49.35-.65.43-.66.41c-.28.18-.57.32-.86.47.26.34.53.68.78,1,.53.66,1,1.36,1.48,2.06.31.44.61.88.92,1.34l.58-.41a19.35,19.35,0,0,1-.63-2,3.92,3.92,0,0,1,0-1.48,3.21,3.21,0,0,1,.65-1.38,10.18,10.18,0,0,1,2.26-1.93c.44.55.89,1.17,1.37,1.84,2.33,3.13,4.58,6.36,6.85,9.51a6.5,6.5,0,0,1,.58,1,1.12,1.12,0,0,1,.11.7,1.48,1.48,0,0,1-.36.67,8.42,8.42,0,0,1-1.17,1.06l.44.61c.49-.35,1-.7,1.46-1.06l1-.75c.53-.41,1.07-.8,1.64-1.17l1-.74c.5-.33,1-.69,1.51-1l-.44-.62a12.87,12.87,0,0,1-1.4.79,1.86,1.86,0,0,1-.76.11,1.39,1.39,0,0,1-.6-.33,6,6,0,0,1-.74-.88l-5.34-7.44Zm27.49.25a5.9,5.9,0,0,0,.59-2.55,7.26,7.26,0,0,0-.82-3.26l-3-6.24c-.34-.7-1.18-2.42-1.08-3.22a1,1,0,0,1,.39-.69,9.42,9.42,0,0,1,1.36-.85l-.32-.67c-.47.25-.92.49-1.39.7-.32.18-.64.34-1,.5-.9.44-1.82.89-2.74,1.28-.48.25-1,.47-1.48.69l.32.66a16.77,16.77,0,0,1,1.84-.66,1.3,1.3,0,0,1,.94.07,2.27,2.27,0,0,1,.95.78,11,11,0,0,1,1.12,1.92c.32.67,3.43,6.25,3.68,8.56a5.13,5.13,0,0,1-.17,2.1,4.28,4.28,0,0,1-1,1.68,6.51,6.51,0,0,1-3.58,1.79,3.76,3.76,0,0,1-1.77-.16,4.33,4.33,0,0,1-1.64-1.13,9.36,9.36,0,0,1-1.52-2.35l-3.7-7.74a5.61,5.61,0,0,1-.4-1,1.09,1.09,0,0,1,0-.7,1.57,1.57,0,0,1,.47-.61,7.43,7.43,0,0,1,1.33-.87l-.32-.65c-.55.27-1.09.55-1.64.81-1.34.71-2.72,1.37-4.11,2-.54.26-1.09.51-1.63.75l.32.67a7.06,7.06,0,0,1,1.49-.5,1.48,1.48,0,0,1,.77,0,1,1,0,0,1,.55.43,5.51,5.51,0,0,1,.57,1l4.14,8.65a6.16,6.16,0,0,0,1.34,1.9,5.08,5.08,0,0,0,1.59,1,4.52,4.52,0,0,0,1.7.3,7.9,7.9,0,0,0,1.63-.2,9.4,9.4,0,0,0,1.5-.47,11.81,11.81,0,0,0,3.12-1.74,5.81,5.81,0,0,0,1.54-1.87M156,95c-.89,1.53-2.64,2.69-5.28,3.44a2.47,2.47,0,0,1-2.07-.1,2.83,2.83,0,0,1-1-1.65L144,83.77l.29-.12.76-.26c.25-.09.52-.17.76-.24a10.15,10.15,0,0,1,3.66-.56,6.33,6.33,0,0,1,2.81.64,6.67,6.67,0,0,1,2.34,2c1.81,2.36,2.94,7.1,1.37,9.77m2.54-.1c1.32-2,1.55-4.42.75-7.28s-2.35-4.87-4.63-5.77-5.06-.84-8.41.09l-1.64.49c-1.48.47-3,.9-4.5,1.25-.58.16-1.16.32-1.74.45l.2.74a6.83,6.83,0,0,1,1.56-.22,1.39,1.39,0,0,1,.75.14,1.25,1.25,0,0,1,.48.51,5.61,5.61,0,0,1,.39,1.06L145,97.92a6.53,6.53,0,0,1,.22,1.11,1.2,1.2,0,0,1-.7,1.21,9.69,9.69,0,0,1-1.46.59l.2.73c.59-.17,1.18-.33,1.77-.52l1.26-.35c.63-.21,1.27-.39,1.93-.55l1.09-.27,1.06-.3c3-.83,6.4-1.94,8.19-4.68m12.28.25,1.81-.21-.1-.75a9.15,9.15,0,0,1-1.57,0,1.6,1.6,0,0,1-.73-.25,1.24,1.24,0,0,1-.39-.58,5.68,5.68,0,0,1-.24-1.11L168,80.36a5.08,5.08,0,0,1-.06-1.12,1.13,1.13,0,0,1,.23-.66,1.59,1.59,0,0,1,.63-.44,8.82,8.82,0,0,1,1.53-.4l-.1-.75-1.81.27c-1.49.26-3,.46-4.52.6-.59.09-1.19.15-1.79.21l.1.76a7,7,0,0,1,1.58,0,1.27,1.27,0,0,1,.72.26,1.1,1.1,0,0,1,.4.57,5.37,5.37,0,0,1,.24,1.11l1.59,11.89a5.21,5.21,0,0,1,.06,1.14,1.21,1.21,0,0,1-.86,1.1,11.4,11.4,0,0,1-1.53.38l.1.75c.6-.08,1.19-.16,1.78-.26l1.27-.17c.66-.12,1.32-.21,2-.27Zm20.09-6.25a8,8,0,0,1-1.31,2.61A5.14,5.14,0,0,1,187.65,93a5.54,5.54,0,0,1-4.77-.1,6.2,6.2,0,0,1-2-1.68,8.49,8.49,0,0,1-1.36-2.67,13.11,13.11,0,0,1,.05-7.19,7.9,7.9,0,0,1,1.36-2.52,5.37,5.37,0,0,1,1.92-1.45,5.48,5.48,0,0,1,4.68.11,5.68,5.68,0,0,1,2,1.6,7.21,7.21,0,0,1,1.37,2.58,12.66,12.66,0,0,1,0,7.19m3-.17a10.33,10.33,0,0,0,0-7.93,7.68,7.68,0,0,0-2.07-2.71,8.57,8.57,0,0,0-3-1.61,10.74,10.74,0,0,0-7.08.11,8.53,8.53,0,0,0-3,1.94,9,9,0,0,0-2.07,3,10.5,10.5,0,0,0,.06,8.09,8.19,8.19,0,0,0,2.17,2.79,8.9,8.9,0,0,0,3,1.58,10.61,10.61,0,0,0,6.95-.18,9.05,9.05,0,0,0,5.06-5.13m13-2.09a6.12,6.12,0,0,1-2.82-.12c-.25-.06-.48-.14-.74-.23l1.17-7.75h.42l.7.06c1.33.11,2.71.36,3.47,1.62a5,5,0,0,1,0,4.6,3.19,3.19,0,0,1-.89,1.11,3.49,3.49,0,0,1-1.34.7m7.48,10.64.11-.72a7.26,7.26,0,0,1-.82-.3L213,96a4,4,0,0,1-.57-.46,4.44,4.44,0,0,1-.88-1.18c-.36-.65-.75-1.37-1.18-2.18s-.84-1.69-1.29-2.58-.71-1.44-1-2.06A6.74,6.74,0,0,0,209.9,87a9,9,0,0,0,.86-.46,3.78,3.78,0,0,0,.85-.7,4.27,4.27,0,0,0,.64-.95,4.74,4.74,0,0,0,.31-3.17,4.16,4.16,0,0,0-.87-1.76,5.93,5.93,0,0,0-1.81-1.38c-1.52-.82-4.12-1.1-5.88-1.27-1-.17-2.08-.3-3.12-.49-.59-.09-1.19-.19-1.78-.3l-.11.76a7.49,7.49,0,0,1,1.52.43,1.25,1.25,0,0,1,.62.44,1.1,1.1,0,0,1,.23.66,5.23,5.23,0,0,1-.08,1.12l-1.75,11.87a5.72,5.72,0,0,1-.25,1.12,1.19,1.19,0,0,1-1.14.81,9.16,9.16,0,0,1-1.57,0l-.11.75c.59.09,1.19.17,1.78.23l1.26.2a18.31,18.31,0,0,1,1.93.28l1.12.16c.53.1,1.06.18,1.6.26l.11-.75a6.65,6.65,0,0,1-1.44-.38,1.13,1.13,0,0,1-.47-.4,1.11,1.11,0,0,1-.12-.64c.19-2,.59-4.19.86-6l.32.11.52.12.48.1.46.07,3.58,7a7.17,7.17,0,0,0,.5.84,2.92,2.92,0,0,0,.9.66,18.17,18.17,0,0,0,4.44,1M237.88,86.8l.23-.7c-.5-.15-1-.3-1.49-.47-.34-.09-.69-.2-1-.32-1-.31-1.92-.61-2.86-1-.52-.17-1-.35-1.55-.55l-.23.71a15.78,15.78,0,0,1,1.78.79,1.3,1.3,0,0,1,.64.7,2.27,2.27,0,0,1,.14,1.23,11.55,11.55,0,0,1-.52,2.15c-.25.72-1.89,6.89-3.32,8.72a5.3,5.3,0,0,1-1.57,1.41,4.43,4.43,0,0,1-1.88.52,6.44,6.44,0,0,1-3.81-1.21,3.48,3.48,0,0,1-1.16-1.34,4.32,4.32,0,0,1-.4-2,9.46,9.46,0,0,1,.54-2.74l2.71-8.16a5.65,5.65,0,0,1,.45-1,1.24,1.24,0,0,1,.49-.5,1.51,1.51,0,0,1,.77-.1,8.19,8.19,0,0,1,1.54.29l.24-.69c-.59-.18-1.18-.36-1.75-.55-1.46-.42-2.9-.9-4.32-1.43-.57-.19-1.14-.39-1.7-.61l-.24.7a7.54,7.54,0,0,1,1.43.69,1.27,1.27,0,0,1,.54.55,1.08,1.08,0,0,1,.1.68,5.81,5.81,0,0,1-.26,1.1l-3,9.1a6.12,6.12,0,0,0-.36,2.29,5,5,0,0,0,.46,1.81,4.75,4.75,0,0,0,1,1.4,8.65,8.65,0,0,0,1.33,1,9.53,9.53,0,0,0,1.39.7,11.89,11.89,0,0,0,3.46.92,6,6,0,0,0,2.41-.28,5.69,5.69,0,0,0,2.2-1.42,7.32,7.32,0,0,0,1.67-2.91l2.18-6.58c.24-.72.82-2.55,1.46-3.06a1,1,0,0,1,.76-.22,8.6,8.6,0,0,1,1.57.33m25.29,13.76.36-.61-4.21-2.46-12.76,9.44-.07.25,1.35-16.42-4.22-2.48-.36.61a7.83,7.83,0,0,1,1.3,1,1,1,0,0,1,.3.8,3.53,3.53,0,0,1-.42,1.47c-1.12,2.38-4.66,8.14-5.19,9a13.79,13.79,0,0,1-1.07,1.62,3,3,0,0,1-.9.83,1.41,1.41,0,0,1-.89.19,4.43,4.43,0,0,1-1.46-.54l-.38.64c.38.23.76.44,1.15.65l.8.47a17,17,0,0,1,1.48.88l.84.48c.39.25.93.57,1.32.8l.38-.64a12.73,12.73,0,0,1-1.39-1,1.1,1.1,0,0,1-.32-.73,2.83,2.83,0,0,1,.35-1.1c1.3-2.55,4.62-8,5.53-9.51,0,0,.05-.43.05-.44l-1.28,15.67.82.48,13-9.56-5.84,10c-.23.39-.45.73-.63,1a1.33,1.33,0,0,1-.5.42,1.18,1.18,0,0,1-.63,0,6.14,6.14,0,0,1-1.27-.54l-.38.65c.44.26.89.52,1.35.77l1,.55c.58.31,1.13.63,1.67,1l1.1.64c.52.33,1,.64,1.57,1l.38-.65a9.83,9.83,0,0,1-1.26-.94,1.58,1.58,0,0,1-.42-.65,1.31,1.31,0,0,1,0-.7,7.23,7.23,0,0,1,.5-1L260,101.32a11.17,11.17,0,0,1,.61-1,1.18,1.18,0,0,1,.48-.4,1.08,1.08,0,0,1,.67,0,8.76,8.76,0,0,1,1.37.6m23.15,20.51.65-.67-7.79-7.75c-.15-.17-.31-.35-.5-.53l-.5-.56c-.22-.26-.42-.52-.61-.79a31.79,31.79,0,0,1-3.71,3.72l.54.55a6.3,6.3,0,0,1,1.79-1.11,2.53,2.53,0,0,1,1.63,0,6.17,6.17,0,0,1,2.08,1.16,35.28,35.28,0,0,1,3.88,3.55l-19,3.81-.71.7,8.48,8.45c.16.18.34.36.52.55l.52.59.6.74,2-1.68c.68-.54,1.37-1.08,2.08-1.61l-.56-.55a4.92,4.92,0,0,1-1.83,1,2.92,2.92,0,0,1-1.76-.16,9.7,9.7,0,0,1-2.39-1.44,50.18,50.18,0,0,1-4.54-4.21Zm2.46,18a42,42,0,0,1-3.07-4l6.84-1.89.19-.21-.63,1c-.78,1.24-1.56,2.48-2.38,3.69-.33.53-.64,1-1,1.46m-.84,6.72,8.74-13.85L296,131l-14.39,3.81c-.72.18-1.34.31-1.88.39a5.38,5.38,0,0,1-1.34.09,2.83,2.83,0,0,1-1-.32,4.2,4.2,0,0,1-1.06-1l-.57.45c.22.28.44.57.68.85l.46.61c.35.42.68.86,1,1.31l.6.8c.27.39.55.76.83,1.14l.61-.46a2.28,2.28,0,0,1-.62-1.27.83.83,0,0,1,.68-.82l.89-.29c.41-.1.92-.24,1.52-.41l2.15-.58c.19.26.28.38.5.64l.68.88c.43.52,1.38,1.83,1.79,2.43.2.26.37.49.49.68l.11.15c-.33.5-.66,1-1,1.5s-.68,1.07-1,1.52-.56.86-.79,1.18a3.63,3.63,0,0,1-.33.47.15.15,0,0,1-.19,0,.8.8,0,0,1-.32-.2c-.13-.13-.28-.28-.44-.47l-.64-.85-.61.47c.32.42.65.85,1,1.27l.67.89c.39.47.76.95,1.1,1.45l.67.88c.3.43.62.85.93,1.27l.6-.45a9.83,9.83,0,0,1-.56-.92,1.72,1.72,0,0,1-.1-.6,2.6,2.6,0,0,1,.22-.72,9.84,9.84,0,0,1,.64-1.09m18.58,13.82c1.48-.84,3-1.62,4.55-2.32a22.89,22.89,0,0,1-1.09-2.78,13.88,13.88,0,0,0-3.62-6.29,9.47,9.47,0,0,0-3.19-2.09,8.37,8.37,0,0,0-3.62-.55,10.56,10.56,0,0,0-6.84,3.47,8.34,8.34,0,0,0-1.66,3.17,9.67,9.67,0,0,0-.18,3.73,13.12,13.12,0,0,0,2.11,5.31c.3.47.59.91.9,1.33l.86,1.2c.27.36.53.73.79,1.11,1.57-.8,3.55-1.92,5.32-2.71a1.43,1.43,0,0,1,.64-.15.83.83,0,0,1,.47.26,4.81,4.81,0,0,1,.78,1.07l.68-.35c-.25-.42-.48-.85-.7-1.28-.74-1.27-1.39-2.6-2-3.93-.31-.61-.61-1.22-.91-1.83l-.68.35a10.81,10.81,0,0,1,.72,1.84,1.6,1.6,0,0,1,.06.87.88.88,0,0,1-.41.52,6.43,6.43,0,0,1-1,.59l-3.44,1.75a7.32,7.32,0,0,1-2.65-4.93,6.43,6.43,0,0,1,.33-2.68,8.06,8.06,0,0,1,1.67-2.66,12.45,12.45,0,0,1,6.72-3.5,6.62,6.62,0,0,1,2.85.26,6,6,0,0,1,2.29,1.4,7.67,7.67,0,0,1,2.32,4.41,3.87,3.87,0,0,1-.26,1.71,5.36,5.36,0,0,1-.85,1.5,19.2,19.2,0,0,1-1.31,1.53Zm8.79,14.56a5,5,0,0,1-4.14,2,3.41,3.41,0,0,1-1.39-.33,3.58,3.58,0,0,1-1.21-.92,6.26,6.26,0,0,1-1.11-2.58c0-.25-.08-.51-.11-.76l7.51-2.29c.05.13.11.25.17.38s.16.42.26.66c.46,1.25.83,2.6,0,3.82m1.82.1c.08-1.72-.79-4.2-1.38-5.85-.3-1-.64-2-.91-3-.17-.58-.34-1.15-.5-1.74l-.72.22a8.5,8.5,0,0,1,.27,1.56,1.4,1.4,0,0,1-.13.75,1.1,1.1,0,0,1-.51.49,5.83,5.83,0,0,1-1,.42l-11.48,3.53a5.77,5.77,0,0,1-1.12.25,1.2,1.2,0,0,1-1.22-.67,9.06,9.06,0,0,1-.62-1.44L297,169c.18.58.36,1.15.56,1.72l.37,1.22c.21.6.4,1.22.57,1.85l.34,1.09c.13.52.29,1,.45,1.55l.72-.22a7.32,7.32,0,0,1-.27-1.47,1.31,1.31,0,0,1,.15-.6,1.42,1.42,0,0,1,.53-.38c1.87-.68,4-1.27,5.8-1.81,0,.12,0,.24,0,.34s.08.36.11.53.09.32.12.47l.14.44-4.76,6.23a5.64,5.64,0,0,0-.53.82,2.44,2.44,0,0,0-.21,1.09,18.38,18.38,0,0,0,1,4.43l.7-.21a8.55,8.55,0,0,1-.09-.87c0-.2,0-.42,0-.66a3.94,3.94,0,0,1,.17-.72,4.57,4.57,0,0,1,.69-1.29c.42-.6.91-1.27,1.46-2s1.17-1.49,1.78-2.28c.51-.64,1-1.25,1.4-1.83a6.51,6.51,0,0,0,1.24,1.49,7.64,7.64,0,0,0,.79.58,3.71,3.71,0,0,0,2.13.63,4.73,4.73,0,0,0,3-1.07,4.15,4.15,0,0,0,1.21-1.55,5.6,5.6,0,0,0,.47-2.23m-6,17.85,6.93,1.55.26-.1-1,.54c-1.26.74-2.53,1.47-3.82,2.15l-1.53.85a42.19,42.19,0,0,1-.83-5m-3.07,10.53,14.23-8.13-.19-1.12-14.5-3.4c-.7-.18-1.32-.36-1.84-.53a5.26,5.26,0,0,1-1.21-.56,2.72,2.72,0,0,1-.76-.75,4.27,4.27,0,0,1-.48-1.35l-.71.12c.05.36.11.72.19,1.08l.12.75c.11.53.2,1.07.26,1.62l.16,1c.05.47.12.93.2,1.41l.76-.13a2.25,2.25,0,0,1,0-1.43.84.84,0,0,1,1-.39c.22,0,.53.09.93.17l1.53.35,2.16.49c.06.31.09.46.15.8l.19,1.09c.13.67.36,2.26.44,3a8.19,8.19,0,0,1,.11.82l0,.19-1.59.86-1.59.87c-.48.27-.9.5-1.24.67l-.51.26a.17.17,0,0,1-.2-.05,1,1,0,0,1-.18-.33c-.06-.18-.11-.39-.17-.63l-.17-1-.76.12c.09.53.17,1.06.28,1.59l.18,1.1a17.75,17.75,0,0,1,.28,1.8l.18,1.08c.07.53.14,1.05.23,1.57l.74-.12a7.82,7.82,0,0,1-.06-1.08,1.6,1.6,0,0,1,.19-.57,2.26,2.26,0,0,1,.54-.53,6.66,6.66,0,0,1,1.06-.66m13.5,14.62a4.34,4.34,0,0,1-4.39.63,3.48,3.48,0,0,1-1.08-.81,3.44,3.44,0,0,1-.63-1.14,8,8,0,0,1-.16-3.2v-.06l7.12.13,0,.28c0,.17,0,.38,0,.63a4.54,4.54,0,0,1-.93,3.54m-7.72-.42a4.11,4.11,0,0,1-.92,1.5,3.32,3.32,0,0,1-1.25.85,4.46,4.46,0,0,1-3.31-.1,3.24,3.24,0,0,1-1.82-2.25,5.28,5.28,0,0,1,.05-3,2,2,0,0,1,.61-.78,2.21,2.21,0,0,1,.93-.38,6.88,6.88,0,0,1,1.25-.1l4.86.07a11.32,11.32,0,0,1-.4,4.19m9.75-9.57h-.76a7.62,7.62,0,0,1-.22,1.56,1.31,1.31,0,0,1-.37.67,1,1,0,0,1-.62.31,4.6,4.6,0,0,1-1.12.07l-12-.18a6.12,6.12,0,0,1-1.14-.11,1.21,1.21,0,0,1-1-1,10.3,10.3,0,0,1-.15-1.56l-.75,0c0,.62,0,1.23,0,1.85v1.3c0,.65,0,1.29,0,1.94l0,1.1c0,.37,0,.74,0,1.07v.86a12.23,12.23,0,0,0,.27,3,7.32,7.32,0,0,0,1,2.37,5,5,0,0,0,1.65,1.58,4.47,4.47,0,0,0,4.5-.05,4.7,4.7,0,0,0,1.41-1.47,6,6,0,0,0,.79-1.68c.05-.16.11-.32.14-.46a1.31,1.31,0,0,1,.09.17,6.52,6.52,0,0,0,.83,1.21,5.27,5.27,0,0,0,1.27,1.05,3.93,3.93,0,0,0,3.75,0,3.68,3.68,0,0,0,1.35-1.31,5.73,5.73,0,0,0,.77-1.89,17.05,17.05,0,0,0,.29-4.28c0-.64,0-1.3,0-2s0-1.52.06-2.29c0-.6,0-1.21.06-1.81m7.23,6.76a145,145,0,1,1-145-145A145,145,0,0,1,330.81,214m2.86,0a147.91,147.91,0,1,0-147.91,147.9A147.91,147.91,0,0,0,333.67,214"/></svg>