<?xml version="1.0" encoding="UTF-8" standalone="no"?>
<!-- Created with Inkscape (http://www.inkscape.org/) -->

<svg
   xmlns:dc="http://purl.org/dc/elements/1.1/"
   xmlns:cc="http://creativecommons.org/ns#"
   xmlns:rdf="http://www.w3.org/1999/02/22-rdf-syntax-ns#"
   xmlns:svg="http://www.w3.org/2000/svg"
   xmlns="http://www.w3.org/2000/svg"
   xmlns:sodipodi="http://sodipodi.sourceforge.net/DTD/sodipodi-0.dtd"
   xmlns:inkscape="http://www.inkscape.org/namespaces/inkscape"
   id="svg3375"
   version="1.1"
   inkscape:version="0.91 r13725"
   width="749"
   height="271"
   viewBox="0 0 749 271"
   sodipodi:docname="zet-logo.svg">
  <metadata
     id="metadata3381">
    <rdf:RDF>
      <cc:Work
         rdf:about="">
        <dc:format>image/svg+xml</dc:format>
        <dc:type
           rdf:resource="http://purl.org/dc/dcmitype/StillImage" />
        <dc:title></dc:title>
      </cc:Work>
    </rdf:RDF>
  </metadata>
  <defs
     id="defs3379" />
  <sodipodi:namedview
     pagecolor="#ffffff"
     bordercolor="#666666"
     borderopacity="1"
     objecttolerance="10"
     gridtolerance="10"
     guidetolerance="10"
     inkscape:pageopacity="0"
     inkscape:pageshadow="2"
     inkscape:window-width="1920"
     inkscape:window-height="1017"
     id="namedview3377"
     showgrid="false"
     inkscape:zoom="0.3845127"
     inkscape:cx="-538.3437"
     inkscape:cy="135.5"
     inkscape:window-x="-8"
     inkscape:window-y="-8"
     inkscape:window-maximized="1"
     inkscape:current-layer="svg3375" />
  <path
     style="fill:#1264ab;fill-opacity:1;opacity:1"
     d="M 3.32984,270.25 C 7.51117,263.248 94,112.6694 94,112.3916 94,112.1762 73.02686,112 47.39301,112 10.50542,112 0.8910736,111.7393 1.28977,110.75 1.566831,110.0625 15.96219,84.975 33.27945,55 L 64.76538,0.5 406.3827,0.2485529 C 594.2722,0.1102569 748,0.2310058 748,0.5168838 748,0.8027617 733.5618,25.99834 715.9152,56.50706 l -32.0848,55.47044 -39.9772,0.2612 -39.9772,0.2613 -45.688,79.2244 -45.688,79.2244 -254.809,0.026 C 117.546,270.9885 3.083509,270.6625 3.32984,270.25 Z M 376.4085,215.4217 C 383.8838,202.4536 390,191.4286 390,190.9217 390,190.3734 372.1917,190 346.0454,190 l -43.9545,0 9.2045,-15.9844 9.2046,-15.9845 44.5094,-0.016 44.5094,-0.016 13.1656,-22.75 13.1657,-22.75 -44.3547,-0.2602 -44.3546,-0.2603 9.1796,-15.97009 9.1796,-15.9701 65.8316,-0.0196 L 497.1631,80 495.1874,83.25 C 487.414,96.03686 406,237.3942 406,238.1041 c 0,0.5141 18.4709,0.8959 43.345,0.8959 40.0461,0 43.4586,-0.1332 44.8367,-1.75 0.8204,-0.9625 21.6942,-36.7325 46.3862,-79.4889 L 585.4624,80.02229 625.4802,79.76115 665.4981,79.5 678.749,56.53688 C 686.0371,43.90716 692,33.21966 692,32.78688 692,32.35409 604.9948,32 498.6552,32 l -193.3448,0 -44.7611,77.4536 c -24.6185,42.5995 -45.2769,78.1592 -45.9074,79.0215 -0.9874,1.3504 -3.9436,1.5302 -21.3073,1.2964 l -20.1608,-0.2715 44.5244,-77 c 24.4884,-42.35 44.7518,-77.7875 45.0297,-78.75 0.4786,-1.65747 -4.2462,-1.74961 -89.3613,-1.74258 L 83.5,32.01485 70.25,55.29167 C 62.9625,68.09392 57,78.88613 57,79.27436 c 0,0.38822 20.88609,0.82281 46.4135,0.96575 L 149.8271,80.5 104.511,159 c -24.92383,43.175 -45.10836,78.8375 -44.85451,79.25 0.25385,0.4125 68.56881,0.75 151.81101,0.75 l 151.3495,0 13.5915,-23.5783 z"
     id="path3391"
     inkscape:connector-curvature="0" />
</svg>
