<svg id="Layer_1" data-name="Layer 1" xmlns="http://www.w3.org/2000/svg" viewBox="0 0 622.12 276.62"><defs><style>.cls-1,.cls-5{fill:#5eaee0;}.cls-2{fill:#3d6f9b;}.cls-3,.cls-4{fill:#2a5066;}.cls-4{font-size:72.62px;}.cls-4,.cls-5{font-family:SimplyRounded, Simply Rounded;}.cls-5{font-size:55px;}.cls-6{font-size:51px;}</style></defs><title>EBEC_Final_standard</title><path class="cls-1" d="M125.73,123.56c0,1.42,0,2.65,0,3.89-.14,13.11.08,26.25-.54,39.35-.5,10.48-6.14,18-16.07,21.65-8.69,3.18-17,2-24.19-4.17-7.74-6.64-10.9-18.15-7.56-27.53,3.13-8.78,13.48-16.33,23.17-16.16,3.71.07,7.41,1.67,11.08,2.68a22.23,22.23,0,0,1,3.34,1.59V124c-4.92-1-10-1.58-14.76-3.13-28.07-9.14-46.65-27.55-53.8-56.55C45.14,59.19,45,53.78,44.72,48.5c-.22-3.86,1.84-5.72,5.66-5.72H189.46c4.74,0,6.35,1.64,6.35,6.41,0,19-7.24,35-19.54,49.23C163.36,113.34,143,122.11,125.73,123.56Zm-10.81-11V53.5H55.42C58.83,91.33,90.35,111.47,114.92,112.56Zm11,.14c26.4-1.79,55.8-23.23,59.13-59.12H125.88ZM86.54,165.39a14.15,14.15,0,0,0,14.31,14.11c9.46.1,14.12-7.91,14.18-14.92.06-7.18-7.18-13.78-14.68-13.63A14.43,14.43,0,0,0,86.54,165.39Z"/><path class="cls-1" d="M141.22,162.58c-21.88-14.54-.32-.22-22.19-14.77-3.89-2.83-.45-4.29-2.29-6-3.25-2.92-.34.28,1.89-2.49,2.6-3.24-.6-5.55,3.14-3.11,1.24,1.26,6.24,2.54,14.75,8.29,6.21,4.2,11.75,5.91,19,3.65,5.87-1.84,12.08-2.58,18.06-3.78-.06-.66,0-.81-.08-.89-.22-.3-.45-.58-.69-.86-6.35-7.29-9.18-15.58-7.25-25.25,3.6-18.1,20.19-28.39,37.25-23.08,13.58,4.23,21.72,14.89,21.52,28.16-.22,13.74-8.81,25.11-22.21,28.47-11,2.77-22.21,4.91-33.33,7.31-2.51.54-5,1-8.5,1.72,1.93,1.41,3,2.31,4.24,3.09,3.46,2.25,7,4.38,10.42,6.69,20.09,13.54,24.41,35.39,15.75,52.94-5.2,10.53-12.84,18.32-24.22,22-22.35,7.2-48.58-7.53-52.92-29.39-1.7-8.51-2-16.88,1.64-25,5.64-12.69,14.45-22,29.15-25.56C142.82,163.72,142,163.12,141.22,162.58ZM148.06,177c-12.16,2.59-26.65,16.58-22.61,33.83,3.68,15.72,18.13,25.77,33.79,22.56a28.26,28.26,0,0,0,22.26-33.85C179.57,186.79,164.94,173.37,148.06,177Zm49.4-37.52c9.3-1.74,15.8-10.91,14-19.81a17.54,17.54,0,0,0-21-13.77c-8.77,1.81-14.47,11-12.64,20.34C179.77,133.31,186.55,141.49,197.46,139.45Z"/><path class="cls-2" d="M121.35,119.18c0,1.43,0,2.66,0,3.89-.14,13.12.08,26.25-.54,39.35-.5,10.48-6.14,18-16.07,21.65-8.69,3.18-17,2-24.19-4.17-7.75-6.64-10.91-18.14-7.56-27.53,3.13-8.78,13.47-16.33,23.17-16.16,3.71.07,7.4,1.67,11.07,2.68a21.44,21.44,0,0,1,3.34,1.6V119.58c-4.91-1-10-1.58-14.75-3.13C67.75,107.31,49.17,88.91,42,59.9c-1.26-5.09-1.37-10.49-1.68-15.77-.22-3.87,1.85-5.72,5.67-5.72H185.08c4.75,0,6.35,1.64,6.35,6.4,0,19-7.24,35-19.54,49.23C159,109,138.58,117.73,121.35,119.18Zm-10.8-11v-59H51C54.45,87,86,107.09,110.55,108.18Zm11,.15c26.4-1.8,55.8-23.23,59.13-59.13H121.5ZM82.16,161a14.17,14.17,0,0,0,14.31,14.12c9.47.09,14.12-7.92,14.18-14.93.07-7.18-7.18-13.77-14.68-13.62A14.42,14.42,0,0,0,82.16,161Z"/><path class="cls-2" d="M136.85,158.2c-21.89-14.54-.32-.21-22.2-14.76-3.88-2.84-.44-4.3-2.29-6-3.24-2.93-.34.28,1.89-2.49,2.61-3.24-.74-6.55,3-4.11,1.24,1.26,6.38,3.53,14.9,9.29,6.21,4.19,11.75,5.9,19,3.64,5.86-1.84,12.07-2.57,18-3.78,0-.66,0-.8-.08-.88-.21-.3-.45-.59-.69-.87-6.35-7.29-9.17-15.58-7.25-25.25,3.6-18.09,20.2-28.39,37.25-23.08,13.58,4.23,21.73,14.9,21.52,28.17-.21,13.74-8.81,25.1-22.2,28.46-11,2.77-22.22,4.91-33.34,7.31-2.51.55-5,1-8.5,1.72,1.93,1.42,3.05,2.32,4.24,3.1,3.46,2.25,7,4.38,10.42,6.68,20.1,13.55,24.42,35.4,15.76,52.94-5.2,10.54-12.85,18.33-24.22,22-22.36,7.19-48.58-7.53-52.93-29.4-1.69-8.51-2-16.87,1.64-24.95,5.64-12.68,14.45-21.95,29.16-25.56C138.45,159.34,137.66,158.74,136.85,158.2Zm6.84,14.39c-12.17,2.6-26.65,16.58-22.61,33.83,3.68,15.72,18.12,25.77,33.78,22.56s25.47-18,22.26-33.85C175.2,182.41,160.56,169,143.69,172.59Zm49.39-37.52c9.31-1.74,15.81-10.91,14-19.81a17.55,17.55,0,0,0-21-13.77c-8.78,1.81-14.47,11-12.64,20.35C175.39,128.94,182.18,137.12,193.08,135.07Z"/><path class="cls-3" d="M117,114.81c0,1.42,0,2.65,0,3.88-.14,13.12.08,26.26-.54,39.35-.5,10.48-6.14,18-16.07,21.65-8.69,3.19-17,2-24.19-4.16-7.75-6.64-10.9-18.15-7.56-27.54,3.13-8.78,13.47-16.32,23.17-16.15,3.71.06,7.4,1.67,11.07,2.68a22.29,22.29,0,0,1,3.35,1.59v-20.9c-4.92-1-10-1.59-14.76-3.14-28.07-9.13-46.65-27.54-53.8-56.55C36.39,50.43,36.27,45,36,39.75,35.75,35.89,37.81,34,41.63,34H180.71c4.74,0,6.35,1.64,6.35,6.41,0,19-7.24,35-19.54,49.23C154.61,104.59,134.21,113.35,117,114.81Zm-10.8-11V44.75H46.66C50.08,82.57,81.59,102.71,106.17,103.81Zm11,.14c26.4-1.79,55.8-23.23,59.13-59.12H117.13ZM77.79,156.64a14.14,14.14,0,0,0,14.3,14.11c9.47.1,14.12-7.92,14.19-14.92.06-7.19-7.18-13.78-14.68-13.63A14.41,14.41,0,0,0,77.79,156.64Z"/><path class="cls-3" d="M132.47,153.82c-21.88-14.54-.32-.21-22.19-14.76-1.16-1.26-2.41-1.26-3-3.76,0,0,0-3.13,1.25-4.38,2.6-3.24,5.48-2.2,6.25-2.5,2.36.88,4.51,1.62,13,7.37,6.21,4.2,11.75,5.91,19,3.64,5.86-1.83,12.07-2.57,18.06-3.78a4.81,4.81,0,0,0-.08-.88c-.22-.3-.45-.59-.69-.86-6.35-7.29-9.18-15.58-7.26-25.26C160.37,90.56,177,80.27,194,85.58c13.57,4.23,21.72,14.89,21.52,28.16-.22,13.74-8.82,25.1-22.21,28.47-11,2.77-22.21,4.9-33.33,7.31-2.52.54-5,1-8.5,1.72,1.93,1.41,3,2.31,4.24,3.09,3.45,2.25,7,4.38,10.42,6.69,20.09,13.54,24.41,35.39,15.75,52.94-5.2,10.53-12.85,18.32-24.22,22-22.35,7.19-48.58-7.53-52.93-29.4-1.69-8.5-1.94-16.87,1.65-24.94,5.64-12.69,14.45-22,29.15-25.56C134.07,155,133.29,154.37,132.47,153.82Zm6.84,14.4c-12.16,2.59-26.65,16.57-22.61,33.83,3.68,15.72,18.12,25.77,33.79,22.55s25.46-18,22.26-33.85C170.82,178,156.19,164.62,139.31,168.22Zm49.4-37.52c9.3-1.74,15.8-10.91,14-19.81a17.54,17.54,0,0,0-21-13.77c-8.77,1.81-14.47,11-12.64,20.34C171,124.56,177.8,132.74,188.71,130.7Z"/><text class="cls-4" transform="translate(258.51 134.02)">EBEC Final</text><text class="cls-5" transform="translate(260.05 188.95)">Zagreb 2<tspan class="cls-6" x="225.32" y="0">0</tspan><tspan x="260.03" y="0">22</tspan></text></svg>