<?xml version="1.0" encoding="utf-8"?>
<!-- Generator: Adobe Illustrator 24.0.1, SVG Export Plug-In . SVG Version: 6.00 Build 0)  -->
<svg version="1.1" id="Layer_1" xmlns="http://www.w3.org/2000/svg" xmlns:xlink="http://www.w3.org/1999/xlink" x="0px" y="0px"
	 viewBox="0 0 212.91 98.63" style="enable-background:new 0 0 212.91 98.63;" xml:space="preserve">
<style type="text/css">
	.st0{fill:#3C6F9C;}
	.st1{fill:#676767;}
</style>
<g>
	<path class="st0" d="M33.64,44.55c2.04,0,3.7,1.66,3.7,3.7c0,2.04-1.66,3.7-3.7,3.7c-2.04,0-3.69-1.66-3.69-3.7
		C29.96,46.2,31.6,44.55,33.64,44.55 M28.06,36.1l4.65,3.38l-3.69,5.08h0.01c-0.05,0.07-0.11,0.14-0.16,0.21
		c-1.16,1.59-1.4,3.56-0.83,5.3c0.02,0.05,0.03,0.11,0.05,0.16c0.04,0.11,0.09,0.22,0.14,0.34c0.02,0.06,0.04,0.11,0.06,0.17
		c0.02,0.04,0.04,0.07,0.06,0.1c0.07,0.13,0.13,0.26,0.21,0.39v0.01c0.04,0.07,0.09,0.13,0.13,0.2c0.07,0.1,0.13,0.21,0.21,0.31
		c0.01,0.01,0.01,0,0.01,0.01c0.01,0.02,0.02,0.04,0.04,0.06c0.04,0.04,0.07,0.09,0.11,0.14h-0.01l3.65,5.03l-4.63,3.36
		c-4.77-5.65-12.94-7-19.27-3.24c-1.38-5.88-1.36-11.98,0-17.77C15.12,43.1,23.29,41.74,28.06,36.1"/>
	<path class="st0" d="M46.12,34.73c0.63,1.94-0.43,4.03-2.38,4.66c-1.94,0.63-4.03-0.43-4.66-2.37c-0.63-1.94,0.44-4.02,2.38-4.65
		C43.41,31.73,45.49,32.79,46.12,34.73 M52.43,26.81l-1.78,5.46l-5.97-1.94l0,0.01c-0.08-0.03-0.17-0.06-0.26-0.08
		c-1.87-0.61-3.82-0.23-5.3,0.84c-0.05,0.03-0.09,0.06-0.14,0.09c-0.1,0.07-0.18,0.16-0.28,0.24c-0.05,0.04-0.1,0.07-0.14,0.12
		c-0.03,0.03-0.05,0.06-0.08,0.08c-0.11,0.1-0.21,0.21-0.31,0.32l-0.01,0c-0.05,0.06-0.1,0.12-0.15,0.18
		c-0.08,0.09-0.16,0.19-0.23,0.29c0,0.01,0,0.01-0.01,0.01c-0.01,0.02-0.03,0.03-0.04,0.05c-0.03,0.05-0.07,0.1-0.1,0.15l0-0.01
		l-3.66,5.02l-4.63-3.36c3.9-6.28,2.66-14.47-2.87-19.33c5.17-3.13,10.97-4.99,16.9-5.49C41.78,16.66,45.59,24.01,52.43,26.81
		L52.43,26.81z"/>
	<path class="st0" d="M59.32,43.56c-1.65,1.2-3.97,0.83-5.17-0.82c-1.2-1.65-0.83-3.96,0.82-5.17c1.65-1.2,3.96-0.83,5.16,0.83
		C61.33,40.05,60.97,42.36,59.32,43.56 M68.8,47.11l-5.74,0l0-6.28l-0.01,0.01c0-0.09,0-0.18,0-0.27c0-1.97-0.96-3.71-2.44-4.78
		c-0.04-0.03-0.08-0.07-0.13-0.1c-0.1-0.07-0.21-0.13-0.31-0.19c-0.05-0.03-0.1-0.07-0.15-0.1c-0.03-0.02-0.07-0.03-0.11-0.05
		c-0.13-0.07-0.26-0.13-0.4-0.2l-0.01-0.01c-0.07-0.03-0.15-0.05-0.22-0.08c-0.11-0.04-0.23-0.09-0.35-0.13c-0.01,0-0.01,0-0.01,0
		c-0.02-0.01-0.04-0.02-0.06-0.02c-0.06-0.02-0.12-0.03-0.17-0.05l0.01-0.01l-5.91-1.92l1.77-5.44c7.17,1.76,14.58-1.94,17.49-8.71
		c4.57,3.95,8.14,8.89,10.45,14.38C75.16,33.84,69.35,39.75,68.8,47.11"/>
	<path class="st0" d="M55,58.84c-1.65-1.2-2.02-3.51-0.82-5.16c1.2-1.65,3.51-2.02,5.16-0.82c1.65,1.2,2.01,3.51,0.81,5.16
		C58.95,59.67,56.65,60.04,55,58.84 M54.55,68.96l-1.77-5.46l5.97-1.94l-0.01-0.01c0.08-0.02,0.17-0.05,0.25-0.08
		c1.87-0.61,3.23-2.06,3.79-3.8c0.02-0.05,0.04-0.1,0.06-0.16c0.03-0.12,0.06-0.24,0.08-0.36c0.01-0.06,0.04-0.11,0.05-0.17
		c0.01-0.04,0.01-0.08,0.01-0.12c0.03-0.15,0.05-0.29,0.07-0.44l0.01-0.01c0.01-0.08,0-0.16,0.01-0.24
		c0.01-0.12,0.02-0.25,0.02-0.37c0-0.01,0-0.01,0-0.01c0-0.02,0-0.04,0-0.07c0-0.06-0.01-0.12-0.01-0.18l0.01,0.01l0-6.22l5.72,0
		c0.54,7.37,6.35,13.27,13.68,13.94c-2.34,5.57-5.94,10.49-10.45,14.38C69.13,70.9,61.73,67.2,54.55,68.96L54.55,68.96z"/>
	<path class="st0" d="M39.13,59.45c0.63-1.94,2.72-3.01,4.66-2.38c1.94,0.63,3,2.72,2.37,4.66c-0.63,1.94-2.72,2.99-4.66,2.36
		C39.56,63.47,38.5,61.39,39.13,59.45 M29.37,62.15l4.65-3.37l3.69,5.08l0-0.01c0.05,0.07,0.1,0.15,0.16,0.22
		c1.15,1.59,2.96,2.43,4.78,2.43c0.06,0,0.11,0.01,0.17,0.01c0.12,0,0.24-0.02,0.36-0.03c0.06,0,0.12,0,0.18-0.01
		c0.04,0,0.08-0.02,0.11-0.02c0.15-0.02,0.29-0.04,0.44-0.07l0.01,0c0.08-0.02,0.15-0.04,0.23-0.06c0.11-0.03,0.24-0.06,0.36-0.1
		c0-0.01,0-0.01,0.01-0.01c0.02-0.01,0.04-0.01,0.07-0.02c0.05-0.02,0.11-0.04,0.17-0.06l0,0.01l5.91-1.92l1.76,5.44
		c-6.84,2.79-10.65,10.14-9.03,17.32c-6.02-0.51-11.81-2.41-16.9-5.49C32.03,76.62,33.26,68.43,29.37,62.15"/>
	<path class="st1" d="M200.31,53.71c-1.69,2.26-4.39,3.71-7.43,3.71c-2.09,0-4.02-0.69-5.57-1.86c-2.25-1.69-3.71-4.39-3.71-7.43
		c0-3.03,1.46-5.73,3.71-7.43c1.55-1.16,3.48-1.86,5.57-1.86c3.04,0,5.74,1.46,7.43,3.71l3.96-3.96c-2.73-3.25-6.82-5.32-11.39-5.32
		c-3.63,0-6.95,1.3-9.53,3.46c-3.25,2.73-5.32,6.82-5.32,11.39c0,4.57,2.07,8.67,5.32,11.39c2.58,2.16,5.9,3.46,9.53,3.46
		c4.57,0,8.66-2.07,11.39-5.32L200.31,53.71z"/>
	<path class="st1" d="M170.2,52.37c-1.54,3-4.66,5.06-8.26,5.06c-1.55,0-3.01-0.38-4.28-1.05c-2.97-1.54-5-4.65-5-8.22
		c0-3.61,2.05-6.73,5.06-8.26c1.26-0.65,2.7-1.02,4.22-1.02c1.55,0,3.01,0.38,4.29,1.05l-6.26,6.26l1.97,1.97l1.97,1.97l6.26-6.26
		c0,0,0,0,0,0l4.05-4.05c-2.67-3.93-7.18-6.51-12.28-6.51c-3.07,0-5.92,0.93-8.29,2.52c-3.96,2.67-6.56,7.2-6.56,12.33
		c0,8.2,6.65,14.85,14.85,14.85c5.13,0,9.66-2.6,12.33-6.56L170.2,52.37z"/>
	<path class="st1" d="M128.47,33.29c-1.39,0-2.73,0.19-4,0.55v5.92c1.21-0.58,2.57-0.9,4-0.9c5.13,0,9.28,4.15,9.28,9.28
		s-4.15,9.28-9.28,9.28c-5.13,0-9.28-4.16-9.28-9.28c0-0.07,0-0.14,0-0.22V36.54l0,0.01V14.73h-5.57v33.41
		c0,4.1,1.66,7.81,4.36,10.49c2.68,2.69,6.4,4.35,10.5,4.35c8.2,0,14.85-6.65,14.85-14.85C143.32,39.94,136.67,33.29,128.47,33.29"
		/>
	<path class="st1" d="M105.79,52.38c-1.54,3-4.66,5.05-8.26,5.05c-1.55,0-3.01-0.38-4.28-1.05c-2.97-1.54-5-4.65-5-8.22
		c0-3.61,2.05-6.73,5.06-8.26c1.26-0.65,2.7-1.02,4.22-1.02c1.55,0,3.01,0.38,4.3,1.05l-6.26,6.26l1.97,1.97l1.97,1.97l6.26-6.26
		c0,0,0,0,0,0l4.05-4.05c-2.67-3.93-7.18-6.51-12.29-6.51c-3.07,0-5.92,0.93-8.29,2.53c-3.96,2.67-6.56,7.19-6.56,12.33
		c0,8.2,6.65,14.85,14.85,14.85c5.13,0,9.66-2.6,12.33-6.56L105.79,52.38z"/>
</g>
</svg>
